<?xml version="1.0" encoding="utf-8" standalone="no"?>
<!DOCTYPE svg PUBLIC "-//W3C//DTD SVG 1.1//EN"
  "http://www.w3.org/Graphics/SVG/1.1/DTD/svg11.dtd">
<!-- Created with matplotlib (http://matplotlib.org/) -->
<svg height="720pt" version="1.1" viewBox="0 0 1152 720" width="1152pt" xmlns="http://www.w3.org/2000/svg" xmlns:xlink="http://www.w3.org/1999/xlink">
 <defs>
  <style type="text/css">
*{stroke-linecap:butt;stroke-linejoin:round;}
  </style>
 </defs>
 <g id="figure_1">
  <g id="patch_1">
   <path d="M 0 720 
L 1152 720 
L 1152 0 
L 0 0 
z
" style="fill:#ffffff;"/>
  </g>
  <g id="axes_1">
   <g id="patch_2">
    <path d="M 144 630 
L 1036.8 630 
L 1036.8 86.4 
L 144 86.4 
z
" style="fill:#ffffff;"/>
   </g>
   <g id="matplotlib.axis_1">
    <g id="xtick_1">
     <g id="line2d_1">
      <path clip-path="url(#pd7d6c766c1)" d="M 399.554849 630 
L 399.554849 86.4 
" style="fill:none;stroke:#b0b0b0;stroke-linecap:square;stroke-width:0.8;"/>
     </g>
     <g id="line2d_2">
      <defs>
       <path d="M 0 0 
L 0 3.5 
" id="m2c70a299a4" style="stroke:#000000;stroke-width:0.8;"/>
      </defs>
      <g>
       <use style="stroke:#000000;stroke-width:0.8;" x="399.554849" xlink:href="#m2c70a299a4" y="630"/>
      </g>
     </g>
     <g id="text_1">
      <!-- $\mathdefault{10^{-7}}$ -->
      <defs>
       <path d="M 12.40625 8.296875 
L 28.515625 8.296875 
L 28.515625 63.921875 
L 10.984375 60.40625 
L 10.984375 69.390625 
L 28.421875 72.90625 
L 38.28125 72.90625 
L 38.28125 8.296875 
L 54.390625 8.296875 
L 54.390625 0 
L 12.40625 0 
z
" id="DejaVuSans-31"/>
       <path d="M 31.78125 66.40625 
Q 24.171875 66.40625 20.328125 58.90625 
Q 16.5 51.421875 16.5 36.375 
Q 16.5 21.390625 20.328125 13.890625 
Q 24.171875 6.390625 31.78125 6.390625 
Q 39.453125 6.390625 43.28125 13.890625 
Q 47.125 21.390625 47.125 36.375 
Q 47.125 51.421875 43.28125 58.90625 
Q 39.453125 66.40625 31.78125 66.40625 
z
M 31.78125 74.21875 
Q 44.046875 74.21875 50.515625 64.515625 
Q 56.984375 54.828125 56.984375 36.375 
Q 56.984375 17.96875 50.515625 8.265625 
Q 44.046875 -1.421875 31.78125 -1.421875 
Q 19.53125 -1.421875 13.0625 8.265625 
Q 6.59375 17.96875 6.59375 36.375 
Q 6.59375 54.828125 13.0625 64.515625 
Q 19.53125 74.21875 31.78125 74.21875 
z
" id="DejaVuSans-30"/>
       <path d="M 10.59375 35.5 
L 73.1875 35.5 
L 73.1875 27.203125 
L 10.59375 27.203125 
z
" id="DejaVuSans-2212"/>
       <path d="M 8.203125 72.90625 
L 55.078125 72.90625 
L 55.078125 68.703125 
L 28.609375 0 
L 18.3125 0 
L 43.21875 64.59375 
L 8.203125 64.59375 
z
" id="DejaVuSans-37"/>
      </defs>
      <g transform="translate(358.946849 663.2602)scale(0.3456 -0.3456)">
       <use transform="translate(0 0.684375)" xlink:href="#DejaVuSans-31"/>
       <use transform="translate(63.623047 0.684375)" xlink:href="#DejaVuSans-30"/>
       <use transform="translate(128.203125 38.965625)scale(0.7)" xlink:href="#DejaVuSans-2212"/>
       <use transform="translate(186.855469 38.965625)scale(0.7)" xlink:href="#DejaVuSans-37"/>
      </g>
     </g>
    </g>
    <g id="xtick_2">
     <g id="line2d_3">
      <path clip-path="url(#pd7d6c766c1)" d="M 701.256413 630 
L 701.256413 86.4 
" style="fill:none;stroke:#b0b0b0;stroke-linecap:square;stroke-width:0.8;"/>
     </g>
     <g id="line2d_4">
      <g>
       <use style="stroke:#000000;stroke-width:0.8;" x="701.256413" xlink:href="#m2c70a299a4" y="630"/>
      </g>
     </g>
     <g id="text_2">
      <!-- $\mathdefault{10^{-6}}$ -->
      <defs>
       <path d="M 33.015625 40.375 
Q 26.375 40.375 22.484375 35.828125 
Q 18.609375 31.296875 18.609375 23.390625 
Q 18.609375 15.53125 22.484375 10.953125 
Q 26.375 6.390625 33.015625 6.390625 
Q 39.65625 6.390625 43.53125 10.953125 
Q 47.40625 15.53125 47.40625 23.390625 
Q 47.40625 31.296875 43.53125 35.828125 
Q 39.65625 40.375 33.015625 40.375 
z
M 52.59375 71.296875 
L 52.59375 62.3125 
Q 48.875 64.0625 45.09375 64.984375 
Q 41.3125 65.921875 37.59375 65.921875 
Q 27.828125 65.921875 22.671875 59.328125 
Q 17.53125 52.734375 16.796875 39.40625 
Q 19.671875 43.65625 24.015625 45.921875 
Q 28.375 48.1875 33.59375 48.1875 
Q 44.578125 48.1875 50.953125 41.515625 
Q 57.328125 34.859375 57.328125 23.390625 
Q 57.328125 12.15625 50.6875 5.359375 
Q 44.046875 -1.421875 33.015625 -1.421875 
Q 20.359375 -1.421875 13.671875 8.265625 
Q 6.984375 17.96875 6.984375 36.375 
Q 6.984375 53.65625 15.1875 63.9375 
Q 23.390625 74.21875 37.203125 74.21875 
Q 40.921875 74.21875 44.703125 73.484375 
Q 48.484375 72.75 52.59375 71.296875 
z
" id="DejaVuSans-36"/>
      </defs>
      <g transform="translate(660.648413 663.2602)scale(0.3456 -0.3456)">
       <use transform="translate(0 0.765625)" xlink:href="#DejaVuSans-31"/>
       <use transform="translate(63.623047 0.765625)" xlink:href="#DejaVuSans-30"/>
       <use transform="translate(128.203125 39.046875)scale(0.7)" xlink:href="#DejaVuSans-2212"/>
       <use transform="translate(186.855469 39.046875)scale(0.7)" xlink:href="#DejaVuSans-36"/>
      </g>
     </g>
    </g>
    <g id="xtick_3">
     <g id="line2d_5">
      <path clip-path="url(#pd7d6c766c1)" d="M 1002.957976 630 
L 1002.957976 86.4 
" style="fill:none;stroke:#b0b0b0;stroke-linecap:square;stroke-width:0.8;"/>
     </g>
     <g id="line2d_6">
      <g>
       <use style="stroke:#000000;stroke-width:0.8;" x="1002.957976" xlink:href="#m2c70a299a4" y="630"/>
      </g>
     </g>
     <g id="text_3">
      <!-- $\mathdefault{10^{-5}}$ -->
      <defs>
       <path d="M 10.796875 72.90625 
L 49.515625 72.90625 
L 49.515625 64.59375 
L 19.828125 64.59375 
L 19.828125 46.734375 
Q 21.96875 47.46875 24.109375 47.828125 
Q 26.265625 48.1875 28.421875 48.1875 
Q 40.625 48.1875 47.75 41.5 
Q 54.890625 34.8125 54.890625 23.390625 
Q 54.890625 11.625 47.5625 5.09375 
Q 40.234375 -1.421875 26.90625 -1.421875 
Q 22.3125 -1.421875 17.546875 -0.640625 
Q 12.796875 0.140625 7.71875 1.703125 
L 7.71875 11.625 
Q 12.109375 9.234375 16.796875 8.0625 
Q 21.484375 6.890625 26.703125 6.890625 
Q 35.15625 6.890625 40.078125 11.328125 
Q 45.015625 15.765625 45.015625 23.390625 
Q 45.015625 31 40.078125 35.4375 
Q 35.15625 39.890625 26.703125 39.890625 
Q 22.75 39.890625 18.8125 39.015625 
Q 14.890625 38.140625 10.796875 36.28125 
z
" id="DejaVuSans-35"/>
      </defs>
      <g transform="translate(962.349976 663.2602)scale(0.3456 -0.3456)">
       <use transform="translate(0 0.684375)" xlink:href="#DejaVuSans-31"/>
       <use transform="translate(63.623047 0.684375)" xlink:href="#DejaVuSans-30"/>
       <use transform="translate(128.203125 38.965625)scale(0.7)" xlink:href="#DejaVuSans-2212"/>
       <use transform="translate(186.855469 38.965625)scale(0.7)" xlink:href="#DejaVuSans-35"/>
      </g>
     </g>
    </g>
    <g id="xtick_4">
     <g id="line2d_7">
      <defs>
       <path d="M 0 0 
L 0 2 
" id="m085f44f3af" style="stroke:#000000;stroke-width:0.6;"/>
      </defs>
      <g>
       <use style="stroke:#000000;stroke-width:0.6;" x="188.674506" xlink:href="#m085f44f3af" y="630"/>
      </g>
     </g>
    </g>
    <g id="xtick_5">
     <g id="line2d_8">
      <g>
       <use style="stroke:#000000;stroke-width:0.6;" x="241.801514" xlink:href="#m085f44f3af" y="630"/>
      </g>
     </g>
    </g>
    <g id="xtick_6">
     <g id="line2d_9">
      <g>
       <use style="stroke:#000000;stroke-width:0.6;" x="279.495726" xlink:href="#m085f44f3af" y="630"/>
      </g>
     </g>
    </g>
    <g id="xtick_7">
     <g id="line2d_10">
      <g>
       <use style="stroke:#000000;stroke-width:0.6;" x="308.733629" xlink:href="#m085f44f3af" y="630"/>
      </g>
     </g>
    </g>
    <g id="xtick_8">
     <g id="line2d_11">
      <g>
       <use style="stroke:#000000;stroke-width:0.6;" x="332.622735" xlink:href="#m085f44f3af" y="630"/>
      </g>
     </g>
    </g>
    <g id="xtick_9">
     <g id="line2d_12">
      <g>
       <use style="stroke:#000000;stroke-width:0.6;" x="352.820686" xlink:href="#m085f44f3af" y="630"/>
      </g>
     </g>
    </g>
    <g id="xtick_10">
     <g id="line2d_13">
      <g>
       <use style="stroke:#000000;stroke-width:0.6;" x="370.316947" xlink:href="#m085f44f3af" y="630"/>
      </g>
     </g>
    </g>
    <g id="xtick_11">
     <g id="line2d_14">
      <g>
       <use style="stroke:#000000;stroke-width:0.6;" x="385.749743" xlink:href="#m085f44f3af" y="630"/>
      </g>
     </g>
    </g>
    <g id="xtick_12">
     <g id="line2d_15">
      <g>
       <use style="stroke:#000000;stroke-width:0.6;" x="490.37607" xlink:href="#m085f44f3af" y="630"/>
      </g>
     </g>
    </g>
    <g id="xtick_13">
     <g id="line2d_16">
      <g>
       <use style="stroke:#000000;stroke-width:0.6;" x="543.503078" xlink:href="#m085f44f3af" y="630"/>
      </g>
     </g>
    </g>
    <g id="xtick_14">
     <g id="line2d_17">
      <g>
       <use style="stroke:#000000;stroke-width:0.6;" x="581.19729" xlink:href="#m085f44f3af" y="630"/>
      </g>
     </g>
    </g>
    <g id="xtick_15">
     <g id="line2d_18">
      <g>
       <use style="stroke:#000000;stroke-width:0.6;" x="610.435192" xlink:href="#m085f44f3af" y="630"/>
      </g>
     </g>
    </g>
    <g id="xtick_16">
     <g id="line2d_19">
      <g>
       <use style="stroke:#000000;stroke-width:0.6;" x="634.324298" xlink:href="#m085f44f3af" y="630"/>
      </g>
     </g>
    </g>
    <g id="xtick_17">
     <g id="line2d_20">
      <g>
       <use style="stroke:#000000;stroke-width:0.6;" x="654.522249" xlink:href="#m085f44f3af" y="630"/>
      </g>
     </g>
    </g>
    <g id="xtick_18">
     <g id="line2d_21">
      <g>
       <use style="stroke:#000000;stroke-width:0.6;" x="672.01851" xlink:href="#m085f44f3af" y="630"/>
      </g>
     </g>
    </g>
    <g id="xtick_19">
     <g id="line2d_22">
      <g>
       <use style="stroke:#000000;stroke-width:0.6;" x="687.451306" xlink:href="#m085f44f3af" y="630"/>
      </g>
     </g>
    </g>
    <g id="xtick_20">
     <g id="line2d_23">
      <g>
       <use style="stroke:#000000;stroke-width:0.6;" x="792.077633" xlink:href="#m085f44f3af" y="630"/>
      </g>
     </g>
    </g>
    <g id="xtick_21">
     <g id="line2d_24">
      <g>
       <use style="stroke:#000000;stroke-width:0.6;" x="845.204641" xlink:href="#m085f44f3af" y="630"/>
      </g>
     </g>
    </g>
    <g id="xtick_22">
     <g id="line2d_25">
      <g>
       <use style="stroke:#000000;stroke-width:0.6;" x="882.898853" xlink:href="#m085f44f3af" y="630"/>
      </g>
     </g>
    </g>
    <g id="xtick_23">
     <g id="line2d_26">
      <g>
       <use style="stroke:#000000;stroke-width:0.6;" x="912.136756" xlink:href="#m085f44f3af" y="630"/>
      </g>
     </g>
    </g>
    <g id="xtick_24">
     <g id="line2d_27">
      <g>
       <use style="stroke:#000000;stroke-width:0.6;" x="936.025862" xlink:href="#m085f44f3af" y="630"/>
      </g>
     </g>
    </g>
    <g id="xtick_25">
     <g id="line2d_28">
      <g>
       <use style="stroke:#000000;stroke-width:0.6;" x="956.223813" xlink:href="#m085f44f3af" y="630"/>
      </g>
     </g>
    </g>
    <g id="xtick_26">
     <g id="line2d_29">
      <g>
       <use style="stroke:#000000;stroke-width:0.6;" x="973.720074" xlink:href="#m085f44f3af" y="630"/>
      </g>
     </g>
    </g>
    <g id="xtick_27">
     <g id="line2d_30">
      <g>
       <use style="stroke:#000000;stroke-width:0.6;" x="989.15287" xlink:href="#m085f44f3af" y="630"/>
      </g>
     </g>
    </g>
    <g id="text_4">
     <!-- frequency, Hz -->
     <defs>
      <path d="M 37.109375 75.984375 
L 37.109375 68.5 
L 28.515625 68.5 
Q 23.6875 68.5 21.796875 66.546875 
Q 19.921875 64.59375 19.921875 59.515625 
L 19.921875 54.6875 
L 34.71875 54.6875 
L 34.71875 47.703125 
L 19.921875 47.703125 
L 19.921875 0 
L 10.890625 0 
L 10.890625 47.703125 
L 2.296875 47.703125 
L 2.296875 54.6875 
L 10.890625 54.6875 
L 10.890625 58.5 
Q 10.890625 67.625 15.140625 71.796875 
Q 19.390625 75.984375 28.609375 75.984375 
z
" id="DejaVuSans-66"/>
      <path d="M 41.109375 46.296875 
Q 39.59375 47.171875 37.8125 47.578125 
Q 36.03125 48 33.890625 48 
Q 26.265625 48 22.1875 43.046875 
Q 18.109375 38.09375 18.109375 28.8125 
L 18.109375 0 
L 9.078125 0 
L 9.078125 54.6875 
L 18.109375 54.6875 
L 18.109375 46.1875 
Q 20.953125 51.171875 25.484375 53.578125 
Q 30.03125 56 36.53125 56 
Q 37.453125 56 38.578125 55.875 
Q 39.703125 55.765625 41.0625 55.515625 
z
" id="DejaVuSans-72"/>
      <path d="M 56.203125 29.59375 
L 56.203125 25.203125 
L 14.890625 25.203125 
Q 15.484375 15.921875 20.484375 11.0625 
Q 25.484375 6.203125 34.421875 6.203125 
Q 39.59375 6.203125 44.453125 7.46875 
Q 49.3125 8.734375 54.109375 11.28125 
L 54.109375 2.78125 
Q 49.265625 0.734375 44.1875 -0.34375 
Q 39.109375 -1.421875 33.890625 -1.421875 
Q 20.796875 -1.421875 13.15625 6.1875 
Q 5.515625 13.8125 5.515625 26.8125 
Q 5.515625 40.234375 12.765625 48.109375 
Q 20.015625 56 32.328125 56 
Q 43.359375 56 49.78125 48.890625 
Q 56.203125 41.796875 56.203125 29.59375 
z
M 47.21875 32.234375 
Q 47.125 39.59375 43.09375 43.984375 
Q 39.0625 48.390625 32.421875 48.390625 
Q 24.90625 48.390625 20.390625 44.140625 
Q 15.875 39.890625 15.1875 32.171875 
z
" id="DejaVuSans-65"/>
      <path d="M 14.796875 27.296875 
Q 14.796875 17.390625 18.875 11.75 
Q 22.953125 6.109375 30.078125 6.109375 
Q 37.203125 6.109375 41.296875 11.75 
Q 45.40625 17.390625 45.40625 27.296875 
Q 45.40625 37.203125 41.296875 42.84375 
Q 37.203125 48.484375 30.078125 48.484375 
Q 22.953125 48.484375 18.875 42.84375 
Q 14.796875 37.203125 14.796875 27.296875 
z
M 45.40625 8.203125 
Q 42.578125 3.328125 38.25 0.953125 
Q 33.9375 -1.421875 27.875 -1.421875 
Q 17.96875 -1.421875 11.734375 6.484375 
Q 5.515625 14.40625 5.515625 27.296875 
Q 5.515625 40.1875 11.734375 48.09375 
Q 17.96875 56 27.875 56 
Q 33.9375 56 38.25 53.625 
Q 42.578125 51.265625 45.40625 46.390625 
L 45.40625 54.6875 
L 54.390625 54.6875 
L 54.390625 -20.796875 
L 45.40625 -20.796875 
z
" id="DejaVuSans-71"/>
      <path d="M 8.5 21.578125 
L 8.5 54.6875 
L 17.484375 54.6875 
L 17.484375 21.921875 
Q 17.484375 14.15625 20.5 10.265625 
Q 23.53125 6.390625 29.59375 6.390625 
Q 36.859375 6.390625 41.078125 11.03125 
Q 45.3125 15.671875 45.3125 23.6875 
L 45.3125 54.6875 
L 54.296875 54.6875 
L 54.296875 0 
L 45.3125 0 
L 45.3125 8.40625 
Q 42.046875 3.421875 37.71875 1 
Q 33.40625 -1.421875 27.6875 -1.421875 
Q 18.265625 -1.421875 13.375 4.4375 
Q 8.5 10.296875 8.5 21.578125 
z
M 31.109375 56 
z
" id="DejaVuSans-75"/>
      <path d="M 54.890625 33.015625 
L 54.890625 0 
L 45.90625 0 
L 45.90625 32.71875 
Q 45.90625 40.484375 42.875 44.328125 
Q 39.84375 48.1875 33.796875 48.1875 
Q 26.515625 48.1875 22.3125 43.546875 
Q 18.109375 38.921875 18.109375 30.90625 
L 18.109375 0 
L 9.078125 0 
L 9.078125 54.6875 
L 18.109375 54.6875 
L 18.109375 46.1875 
Q 21.34375 51.125 25.703125 53.5625 
Q 30.078125 56 35.796875 56 
Q 45.21875 56 50.046875 50.171875 
Q 54.890625 44.34375 54.890625 33.015625 
z
" id="DejaVuSans-6e"/>
      <path d="M 48.78125 52.59375 
L 48.78125 44.1875 
Q 44.96875 46.296875 41.140625 47.34375 
Q 37.3125 48.390625 33.40625 48.390625 
Q 24.65625 48.390625 19.8125 42.84375 
Q 14.984375 37.3125 14.984375 27.296875 
Q 14.984375 17.28125 19.8125 11.734375 
Q 24.65625 6.203125 33.40625 6.203125 
Q 37.3125 6.203125 41.140625 7.25 
Q 44.96875 8.296875 48.78125 10.40625 
L 48.78125 2.09375 
Q 45.015625 0.34375 40.984375 -0.53125 
Q 36.96875 -1.421875 32.421875 -1.421875 
Q 20.0625 -1.421875 12.78125 6.34375 
Q 5.515625 14.109375 5.515625 27.296875 
Q 5.515625 40.671875 12.859375 48.328125 
Q 20.21875 56 33.015625 56 
Q 37.15625 56 41.109375 55.140625 
Q 45.0625 54.296875 48.78125 52.59375 
z
" id="DejaVuSans-63"/>
      <path d="M 32.171875 -5.078125 
Q 28.375 -14.84375 24.75 -17.8125 
Q 21.140625 -20.796875 15.09375 -20.796875 
L 7.90625 -20.796875 
L 7.90625 -13.28125 
L 13.1875 -13.28125 
Q 16.890625 -13.28125 18.9375 -11.515625 
Q 21 -9.765625 23.484375 -3.21875 
L 25.09375 0.875 
L 2.984375 54.6875 
L 12.5 54.6875 
L 29.59375 11.921875 
L 46.6875 54.6875 
L 56.203125 54.6875 
z
" id="DejaVuSans-79"/>
      <path d="M 11.71875 12.40625 
L 22.015625 12.40625 
L 22.015625 4 
L 14.015625 -11.625 
L 7.71875 -11.625 
L 11.71875 4 
z
" id="DejaVuSans-2c"/>
      <path id="DejaVuSans-20"/>
      <path d="M 9.8125 72.90625 
L 19.671875 72.90625 
L 19.671875 43.015625 
L 55.515625 43.015625 
L 55.515625 72.90625 
L 65.375 72.90625 
L 65.375 0 
L 55.515625 0 
L 55.515625 34.71875 
L 19.671875 34.71875 
L 19.671875 0 
L 9.8125 0 
z
" id="DejaVuSans-48"/>
      <path d="M 5.515625 54.6875 
L 48.1875 54.6875 
L 48.1875 46.484375 
L 14.40625 7.171875 
L 48.1875 7.171875 
L 48.1875 0 
L 4.296875 0 
L 4.296875 8.203125 
L 38.09375 47.515625 
L 5.515625 47.515625 
z
" id="DejaVuSans-7a"/>
     </defs>
     <g transform="translate(470.304 700.7078)scale(0.3456 -0.3456)">
      <use xlink:href="#DejaVuSans-66"/>
      <use x="35.205078" xlink:href="#DejaVuSans-72"/>
      <use x="76.287109" xlink:href="#DejaVuSans-65"/>
      <use x="137.810547" xlink:href="#DejaVuSans-71"/>
      <use x="201.287109" xlink:href="#DejaVuSans-75"/>
      <use x="264.666016" xlink:href="#DejaVuSans-65"/>
      <use x="326.189453" xlink:href="#DejaVuSans-6e"/>
      <use x="389.568359" xlink:href="#DejaVuSans-63"/>
      <use x="444.548828" xlink:href="#DejaVuSans-79"/>
      <use x="503.728516" xlink:href="#DejaVuSans-2c"/>
      <use x="535.515625" xlink:href="#DejaVuSans-20"/>
      <use x="567.302734" xlink:href="#DejaVuSans-48"/>
      <use x="642.498047" xlink:href="#DejaVuSans-7a"/>
     </g>
    </g>
   </g>
   <g id="matplotlib.axis_2">
    <g id="ytick_1">
     <g id="line2d_31">
      <path clip-path="url(#pd7d6c766c1)" d="M 144 469.57923 
L 1036.8 469.57923 
" style="fill:none;stroke:#b0b0b0;stroke-linecap:square;stroke-width:0.8;"/>
     </g>
     <g id="line2d_32">
      <defs>
       <path d="M 0 0 
L -3.5 0 
" id="m7659ff27ff" style="stroke:#000000;stroke-width:0.8;"/>
      </defs>
      <g>
       <use style="stroke:#000000;stroke-width:0.8;" x="144" xlink:href="#m7659ff27ff" y="469.57923"/>
      </g>
     </g>
     <g id="text_5">
      <!-- $\mathdefault{10^{-27}}$ -->
      <defs>
       <path d="M 19.1875 8.296875 
L 53.609375 8.296875 
L 53.609375 0 
L 7.328125 0 
L 7.328125 8.296875 
Q 12.9375 14.109375 22.625 23.890625 
Q 32.328125 33.6875 34.8125 36.53125 
Q 39.546875 41.84375 41.421875 45.53125 
Q 43.3125 49.21875 43.3125 52.78125 
Q 43.3125 58.59375 39.234375 62.25 
Q 35.15625 65.921875 28.609375 65.921875 
Q 23.96875 65.921875 18.8125 64.3125 
Q 13.671875 62.703125 7.8125 59.421875 
L 7.8125 69.390625 
Q 13.765625 71.78125 18.9375 73 
Q 24.125 74.21875 28.421875 74.21875 
Q 39.75 74.21875 46.484375 68.546875 
Q 53.21875 62.890625 53.21875 53.421875 
Q 53.21875 48.921875 51.53125 44.890625 
Q 49.859375 40.875 45.40625 35.40625 
Q 44.1875 33.984375 37.640625 27.21875 
Q 31.109375 20.453125 19.1875 8.296875 
z
" id="DejaVuSans-32"/>
      </defs>
      <g transform="translate(40.5776 482.70933)scale(0.3456 -0.3456)">
       <use transform="translate(0 0.765625)" xlink:href="#DejaVuSans-31"/>
       <use transform="translate(63.623047 0.765625)" xlink:href="#DejaVuSans-30"/>
       <use transform="translate(128.203125 39.046875)scale(0.7)" xlink:href="#DejaVuSans-2212"/>
       <use transform="translate(186.855469 39.046875)scale(0.7)" xlink:href="#DejaVuSans-32"/>
       <use transform="translate(231.391602 39.046875)scale(0.7)" xlink:href="#DejaVuSans-37"/>
      </g>
     </g>
    </g>
    <g id="ytick_2">
     <g id="line2d_33">
      <path clip-path="url(#pd7d6c766c1)" d="M 144 145.964372 
L 1036.8 145.964372 
" style="fill:none;stroke:#b0b0b0;stroke-linecap:square;stroke-width:0.8;"/>
     </g>
     <g id="line2d_34">
      <g>
       <use style="stroke:#000000;stroke-width:0.8;" x="144" xlink:href="#m7659ff27ff" y="145.964372"/>
      </g>
     </g>
     <g id="text_6">
      <!-- $\mathdefault{10^{-26}}$ -->
      <g transform="translate(40.5776 159.094472)scale(0.3456 -0.3456)">
       <use transform="translate(0 0.765625)" xlink:href="#DejaVuSans-31"/>
       <use transform="translate(63.623047 0.765625)" xlink:href="#DejaVuSans-30"/>
       <use transform="translate(128.203125 39.046875)scale(0.7)" xlink:href="#DejaVuSans-2212"/>
       <use transform="translate(186.855469 39.046875)scale(0.7)" xlink:href="#DejaVuSans-32"/>
       <use transform="translate(231.391602 39.046875)scale(0.7)" xlink:href="#DejaVuSans-36"/>
      </g>
     </g>
    </g>
    <g id="ytick_3">
     <g id="line2d_35">
      <defs>
       <path d="M 0 0 
L -2 0 
" id="mb82672e966" style="stroke:#000000;stroke-width:0.6;"/>
      </defs>
      <g>
       <use style="stroke:#000000;stroke-width:0.6;" x="144" xlink:href="#mb82672e966" y="598.358529"/>
      </g>
     </g>
    </g>
    <g id="ytick_4">
     <g id="line2d_36">
      <g>
       <use style="stroke:#000000;stroke-width:0.6;" x="144" xlink:href="#mb82672e966" y="566.997009"/>
      </g>
     </g>
    </g>
    <g id="ytick_5">
     <g id="line2d_37">
      <g>
       <use style="stroke:#000000;stroke-width:0.6;" x="144" xlink:href="#mb82672e966" y="541.372782"/>
      </g>
     </g>
    </g>
    <g id="ytick_6">
     <g id="line2d_38">
      <g>
       <use style="stroke:#000000;stroke-width:0.6;" x="144" xlink:href="#mb82672e966" y="519.707806"/>
      </g>
     </g>
    </g>
    <g id="ytick_7">
     <g id="line2d_39">
      <g>
       <use style="stroke:#000000;stroke-width:0.6;" x="144" xlink:href="#mb82672e966" y="500.94075"/>
      </g>
     </g>
    </g>
    <g id="ytick_8">
     <g id="line2d_40">
      <g>
       <use style="stroke:#000000;stroke-width:0.6;" x="144" xlink:href="#mb82672e966" y="484.387034"/>
      </g>
     </g>
    </g>
    <g id="ytick_9">
     <g id="line2d_41">
      <g>
       <use style="stroke:#000000;stroke-width:0.6;" x="144" xlink:href="#mb82672e966" y="372.161451"/>
      </g>
     </g>
    </g>
    <g id="ytick_10">
     <g id="line2d_42">
      <g>
       <use style="stroke:#000000;stroke-width:0.6;" x="144" xlink:href="#mb82672e966" y="315.175703"/>
      </g>
     </g>
    </g>
    <g id="ytick_11">
     <g id="line2d_43">
      <g>
       <use style="stroke:#000000;stroke-width:0.6;" x="144" xlink:href="#mb82672e966" y="274.743671"/>
      </g>
     </g>
    </g>
    <g id="ytick_12">
     <g id="line2d_44">
      <g>
       <use style="stroke:#000000;stroke-width:0.6;" x="144" xlink:href="#mb82672e966" y="243.382151"/>
      </g>
     </g>
    </g>
    <g id="ytick_13">
     <g id="line2d_45">
      <g>
       <use style="stroke:#000000;stroke-width:0.6;" x="144" xlink:href="#mb82672e966" y="217.757923"/>
      </g>
     </g>
    </g>
    <g id="ytick_14">
     <g id="line2d_46">
      <g>
       <use style="stroke:#000000;stroke-width:0.6;" x="144" xlink:href="#mb82672e966" y="196.092948"/>
      </g>
     </g>
    </g>
    <g id="ytick_15">
     <g id="line2d_47">
      <g>
       <use style="stroke:#000000;stroke-width:0.6;" x="144" xlink:href="#mb82672e966" y="177.325892"/>
      </g>
     </g>
    </g>
    <g id="ytick_16">
     <g id="line2d_48">
      <g>
       <use style="stroke:#000000;stroke-width:0.6;" x="144" xlink:href="#mb82672e966" y="160.772176"/>
      </g>
     </g>
    </g>
    <g id="text_7">
     <!-- dimensionless strain, $h(n f_{0})$ -->
     <defs>
      <path d="M 45.40625 46.390625 
L 45.40625 75.984375 
L 54.390625 75.984375 
L 54.390625 0 
L 45.40625 0 
L 45.40625 8.203125 
Q 42.578125 3.328125 38.25 0.953125 
Q 33.9375 -1.421875 27.875 -1.421875 
Q 17.96875 -1.421875 11.734375 6.484375 
Q 5.515625 14.40625 5.515625 27.296875 
Q 5.515625 40.1875 11.734375 48.09375 
Q 17.96875 56 27.875 56 
Q 33.9375 56 38.25 53.625 
Q 42.578125 51.265625 45.40625 46.390625 
z
M 14.796875 27.296875 
Q 14.796875 17.390625 18.875 11.75 
Q 22.953125 6.109375 30.078125 6.109375 
Q 37.203125 6.109375 41.296875 11.75 
Q 45.40625 17.390625 45.40625 27.296875 
Q 45.40625 37.203125 41.296875 42.84375 
Q 37.203125 48.484375 30.078125 48.484375 
Q 22.953125 48.484375 18.875 42.84375 
Q 14.796875 37.203125 14.796875 27.296875 
z
" id="DejaVuSans-64"/>
      <path d="M 9.421875 54.6875 
L 18.40625 54.6875 
L 18.40625 0 
L 9.421875 0 
z
M 9.421875 75.984375 
L 18.40625 75.984375 
L 18.40625 64.59375 
L 9.421875 64.59375 
z
" id="DejaVuSans-69"/>
      <path d="M 52 44.1875 
Q 55.375 50.25 60.0625 53.125 
Q 64.75 56 71.09375 56 
Q 79.640625 56 84.28125 50.015625 
Q 88.921875 44.046875 88.921875 33.015625 
L 88.921875 0 
L 79.890625 0 
L 79.890625 32.71875 
Q 79.890625 40.578125 77.09375 44.375 
Q 74.3125 48.1875 68.609375 48.1875 
Q 61.625 48.1875 57.5625 43.546875 
Q 53.515625 38.921875 53.515625 30.90625 
L 53.515625 0 
L 44.484375 0 
L 44.484375 32.71875 
Q 44.484375 40.625 41.703125 44.40625 
Q 38.921875 48.1875 33.109375 48.1875 
Q 26.21875 48.1875 22.15625 43.53125 
Q 18.109375 38.875 18.109375 30.90625 
L 18.109375 0 
L 9.078125 0 
L 9.078125 54.6875 
L 18.109375 54.6875 
L 18.109375 46.1875 
Q 21.1875 51.21875 25.484375 53.609375 
Q 29.78125 56 35.6875 56 
Q 41.65625 56 45.828125 52.96875 
Q 50 49.953125 52 44.1875 
z
" id="DejaVuSans-6d"/>
      <path d="M 44.28125 53.078125 
L 44.28125 44.578125 
Q 40.484375 46.53125 36.375 47.5 
Q 32.28125 48.484375 27.875 48.484375 
Q 21.1875 48.484375 17.84375 46.4375 
Q 14.5 44.390625 14.5 40.28125 
Q 14.5 37.15625 16.890625 35.375 
Q 19.28125 33.59375 26.515625 31.984375 
L 29.59375 31.296875 
Q 39.15625 29.25 43.1875 25.515625 
Q 47.21875 21.78125 47.21875 15.09375 
Q 47.21875 7.46875 41.1875 3.015625 
Q 35.15625 -1.421875 24.609375 -1.421875 
Q 20.21875 -1.421875 15.453125 -0.5625 
Q 10.6875 0.296875 5.421875 2 
L 5.421875 11.28125 
Q 10.40625 8.6875 15.234375 7.390625 
Q 20.0625 6.109375 24.8125 6.109375 
Q 31.15625 6.109375 34.5625 8.28125 
Q 37.984375 10.453125 37.984375 14.40625 
Q 37.984375 18.0625 35.515625 20.015625 
Q 33.0625 21.96875 24.703125 23.78125 
L 21.578125 24.515625 
Q 13.234375 26.265625 9.515625 29.90625 
Q 5.8125 33.546875 5.8125 39.890625 
Q 5.8125 47.609375 11.28125 51.796875 
Q 16.75 56 26.8125 56 
Q 31.78125 56 36.171875 55.265625 
Q 40.578125 54.546875 44.28125 53.078125 
z
" id="DejaVuSans-73"/>
      <path d="M 30.609375 48.390625 
Q 23.390625 48.390625 19.1875 42.75 
Q 14.984375 37.109375 14.984375 27.296875 
Q 14.984375 17.484375 19.15625 11.84375 
Q 23.34375 6.203125 30.609375 6.203125 
Q 37.796875 6.203125 41.984375 11.859375 
Q 46.1875 17.53125 46.1875 27.296875 
Q 46.1875 37.015625 41.984375 42.703125 
Q 37.796875 48.390625 30.609375 48.390625 
z
M 30.609375 56 
Q 42.328125 56 49.015625 48.375 
Q 55.71875 40.765625 55.71875 27.296875 
Q 55.71875 13.875 49.015625 6.21875 
Q 42.328125 -1.421875 30.609375 -1.421875 
Q 18.84375 -1.421875 12.171875 6.21875 
Q 5.515625 13.875 5.515625 27.296875 
Q 5.515625 40.765625 12.171875 48.375 
Q 18.84375 56 30.609375 56 
z
" id="DejaVuSans-6f"/>
      <path d="M 9.421875 75.984375 
L 18.40625 75.984375 
L 18.40625 0 
L 9.421875 0 
z
" id="DejaVuSans-6c"/>
      <path d="M 18.3125 70.21875 
L 18.3125 54.6875 
L 36.8125 54.6875 
L 36.8125 47.703125 
L 18.3125 47.703125 
L 18.3125 18.015625 
Q 18.3125 11.328125 20.140625 9.421875 
Q 21.96875 7.515625 27.59375 7.515625 
L 36.8125 7.515625 
L 36.8125 0 
L 27.59375 0 
Q 17.1875 0 13.234375 3.875 
Q 9.28125 7.765625 9.28125 18.015625 
L 9.28125 47.703125 
L 2.6875 47.703125 
L 2.6875 54.6875 
L 9.28125 54.6875 
L 9.28125 70.21875 
z
" id="DejaVuSans-74"/>
      <path d="M 34.28125 27.484375 
Q 23.390625 27.484375 19.1875 25 
Q 14.984375 22.515625 14.984375 16.5 
Q 14.984375 11.71875 18.140625 8.90625 
Q 21.296875 6.109375 26.703125 6.109375 
Q 34.1875 6.109375 38.703125 11.40625 
Q 43.21875 16.703125 43.21875 25.484375 
L 43.21875 27.484375 
z
M 52.203125 31.203125 
L 52.203125 0 
L 43.21875 0 
L 43.21875 8.296875 
Q 40.140625 3.328125 35.546875 0.953125 
Q 30.953125 -1.421875 24.3125 -1.421875 
Q 15.921875 -1.421875 10.953125 3.296875 
Q 6 8.015625 6 15.921875 
Q 6 25.140625 12.171875 29.828125 
Q 18.359375 34.515625 30.609375 34.515625 
L 43.21875 34.515625 
L 43.21875 35.40625 
Q 43.21875 41.609375 39.140625 45 
Q 35.0625 48.390625 27.6875 48.390625 
Q 23 48.390625 18.546875 47.265625 
Q 14.109375 46.140625 10.015625 43.890625 
L 10.015625 52.203125 
Q 14.9375 54.109375 19.578125 55.046875 
Q 24.21875 56 28.609375 56 
Q 40.484375 56 46.34375 49.84375 
Q 52.203125 43.703125 52.203125 31.203125 
z
" id="DejaVuSans-61"/>
      <path d="M 55.71875 33.015625 
L 49.3125 0 
L 40.28125 0 
L 46.6875 32.671875 
Q 47.125 34.96875 47.359375 36.71875 
Q 47.609375 38.484375 47.609375 39.5 
Q 47.609375 43.609375 45.015625 45.890625 
Q 42.4375 48.1875 37.796875 48.1875 
Q 30.5625 48.1875 25.265625 43.296875 
Q 19.96875 38.421875 18.40625 30.328125 
L 12.5 0 
L 3.515625 0 
L 18.3125 75.984375 
L 27.296875 75.984375 
L 21.484375 46.09375 
Q 24.90625 50.6875 30.21875 53.34375 
Q 35.546875 56 41.40625 56 
Q 48.640625 56 52.609375 52.09375 
Q 56.59375 48.1875 56.59375 41.109375 
Q 56.59375 39.359375 56.375 37.359375 
Q 56.15625 35.359375 55.71875 33.015625 
z
" id="DejaVuSans-Oblique-68"/>
      <path d="M 31 75.875 
Q 24.46875 64.65625 21.28125 53.65625 
Q 18.109375 42.671875 18.109375 31.390625 
Q 18.109375 20.125 21.3125 9.0625 
Q 24.515625 -2 31 -13.1875 
L 23.1875 -13.1875 
Q 15.875 -1.703125 12.234375 9.375 
Q 8.59375 20.453125 8.59375 31.390625 
Q 8.59375 42.28125 12.203125 53.3125 
Q 15.828125 64.359375 23.1875 75.875 
z
" id="DejaVuSans-28"/>
      <path d="M 55.71875 33.015625 
L 49.3125 0 
L 40.28125 0 
L 46.6875 32.671875 
Q 47.125 34.96875 47.359375 36.71875 
Q 47.609375 38.484375 47.609375 39.5 
Q 47.609375 43.609375 45.015625 45.890625 
Q 42.4375 48.1875 37.796875 48.1875 
Q 30.5625 48.1875 25.34375 43.375 
Q 20.125 38.578125 18.5 30.328125 
L 12.5 0 
L 3.515625 0 
L 14.109375 54.6875 
L 23.09375 54.6875 
L 21.296875 46.09375 
Q 25.046875 50.828125 30.3125 53.40625 
Q 35.59375 56 41.40625 56 
Q 48.640625 56 52.609375 52.09375 
Q 56.59375 48.1875 56.59375 41.109375 
Q 56.59375 39.359375 56.375 37.359375 
Q 56.15625 35.359375 55.71875 33.015625 
z
" id="DejaVuSans-Oblique-6e"/>
      <path d="M 47.796875 75.984375 
L 46.390625 68.5 
L 37.796875 68.5 
Q 32.90625 68.5 30.6875 66.578125 
Q 28.46875 64.65625 27.390625 59.515625 
L 26.421875 54.6875 
L 41.21875 54.6875 
L 39.890625 47.703125 
L 25.09375 47.703125 
L 15.828125 0 
L 6.78125 0 
L 16.109375 47.703125 
L 7.515625 47.703125 
L 8.796875 54.6875 
L 17.390625 54.6875 
L 18.109375 58.5 
Q 19.96875 68.171875 24.625 72.078125 
Q 29.296875 75.984375 39.3125 75.984375 
z
" id="DejaVuSans-Oblique-66"/>
      <path d="M 8.015625 75.875 
L 15.828125 75.875 
Q 23.140625 64.359375 26.78125 53.3125 
Q 30.421875 42.28125 30.421875 31.390625 
Q 30.421875 20.453125 26.78125 9.375 
Q 23.140625 -1.703125 15.828125 -13.1875 
L 8.015625 -13.1875 
Q 14.5 -2 17.703125 9.0625 
Q 20.90625 20.125 20.90625 31.390625 
Q 20.90625 42.671875 17.703125 53.65625 
Q 14.5 64.65625 8.015625 75.875 
z
" id="DejaVuSans-29"/>
     </defs>
     <g transform="translate(29.3902 596.664)rotate(-90)scale(0.3456 -0.3456)">
      <use transform="translate(0 0.015625)" xlink:href="#DejaVuSans-64"/>
      <use transform="translate(63.476562 0.015625)" xlink:href="#DejaVuSans-69"/>
      <use transform="translate(91.259766 0.015625)" xlink:href="#DejaVuSans-6d"/>
      <use transform="translate(188.671875 0.015625)" xlink:href="#DejaVuSans-65"/>
      <use transform="translate(250.195312 0.015625)" xlink:href="#DejaVuSans-6e"/>
      <use transform="translate(313.574219 0.015625)" xlink:href="#DejaVuSans-73"/>
      <use transform="translate(365.673828 0.015625)" xlink:href="#DejaVuSans-69"/>
      <use transform="translate(393.457031 0.015625)" xlink:href="#DejaVuSans-6f"/>
      <use transform="translate(454.638672 0.015625)" xlink:href="#DejaVuSans-6e"/>
      <use transform="translate(518.017578 0.015625)" xlink:href="#DejaVuSans-6c"/>
      <use transform="translate(545.800781 0.015625)" xlink:href="#DejaVuSans-65"/>
      <use transform="translate(607.324219 0.015625)" xlink:href="#DejaVuSans-73"/>
      <use transform="translate(659.423828 0.015625)" xlink:href="#DejaVuSans-73"/>
      <use transform="translate(711.523438 0.015625)" xlink:href="#DejaVuSans-20"/>
      <use transform="translate(743.310547 0.015625)" xlink:href="#DejaVuSans-73"/>
      <use transform="translate(795.410156 0.015625)" xlink:href="#DejaVuSans-74"/>
      <use transform="translate(834.619141 0.015625)" xlink:href="#DejaVuSans-72"/>
      <use transform="translate(875.732422 0.015625)" xlink:href="#DejaVuSans-61"/>
      <use transform="translate(937.011719 0.015625)" xlink:href="#DejaVuSans-69"/>
      <use transform="translate(964.794922 0.015625)" xlink:href="#DejaVuSans-6e"/>
      <use transform="translate(1028.173828 0.015625)" xlink:href="#DejaVuSans-2c"/>
      <use transform="translate(1059.960938 0.015625)" xlink:href="#DejaVuSans-20"/>
      <use transform="translate(1091.748047 0.015625)" xlink:href="#DejaVuSans-Oblique-68"/>
      <use transform="translate(1155.126953 0.015625)" xlink:href="#DejaVuSans-28"/>
      <use transform="translate(1194.140625 0.015625)" xlink:href="#DejaVuSans-Oblique-6e"/>
      <use transform="translate(1257.519531 0.015625)" xlink:href="#DejaVuSans-Oblique-66"/>
      <use transform="translate(1292.724609 -16.390625)scale(0.7)" xlink:href="#DejaVuSans-30"/>
      <use transform="translate(1339.995117 0.015625)" xlink:href="#DejaVuSans-29"/>
     </g>
    </g>
   </g>
   <g id="line2d_49">
    <defs>
     <path d="M 0 3 
C 0.795609 3 1.55874 2.683901 2.12132 2.12132 
C 2.683901 1.55874 3 0.795609 3 0 
C 3 -0.795609 2.683901 -1.55874 2.12132 -2.12132 
C 1.55874 -2.683901 0.795609 -3 0 -3 
C -0.795609 -3 -1.55874 -2.683901 -2.12132 -2.12132 
C -2.683901 -1.55874 -3 -0.795609 -3 0 
C -3 0.795609 -2.683901 1.55874 -2.12132 2.12132 
C -1.55874 2.683901 -0.795609 3 0 3 
z
" id="m49ae6d2de0" style="stroke:#000000;"/>
    </defs>
    <g clip-path="url(#pd7d6c766c1)">
     <use style="stroke:#000000;" x="184.581818" xlink:href="#m49ae6d2de0" y="111.109091"/>
     <use style="stroke:#000000;" x="275.403039" xlink:href="#m49ae6d2de0" y="160.190126"/>
     <use style="stroke:#000000;" x="328.530047" xlink:href="#m49ae6d2de0" y="194.647151"/>
     <use style="stroke:#000000;" x="366.224259" xlink:href="#m49ae6d2de0" y="222.59923"/>
     <use style="stroke:#000000;" x="395.462161" xlink:href="#m49ae6d2de0" y="246.629327"/>
     <use style="stroke:#000000;" x="419.351267" xlink:href="#m49ae6d2de0" y="267.728126"/>
     <use style="stroke:#000000;" x="439.549218" xlink:href="#m49ae6d2de0" y="286.209891"/>
     <use style="stroke:#000000;" x="457.045479" xlink:href="#m49ae6d2de0" y="302.043701"/>
     <use style="stroke:#000000;" x="472.478275" xlink:href="#m49ae6d2de0" y="315.040997"/>
     <use style="stroke:#000000;" x="486.283382" xlink:href="#m49ae6d2de0" y="325.011985"/>
     <use style="stroke:#000000;" x="498.77162" xlink:href="#m49ae6d2de0" y="331.900568"/>
     <use style="stroke:#000000;" x="510.172487" xlink:href="#m49ae6d2de0" y="335.863414"/>
     <use style="stroke:#000000;" x="520.660269" xlink:href="#m49ae6d2de0" y="337.264298"/>
     <use style="stroke:#000000;" x="530.370439" xlink:href="#m49ae6d2de0" y="336.597307"/>
     <use style="stroke:#000000;" x="539.41039" xlink:href="#m49ae6d2de0" y="334.387126"/>
     <use style="stroke:#000000;" x="547.8667" xlink:href="#m49ae6d2de0" y="331.110978"/>
     <use style="stroke:#000000;" x="555.810182" xlink:href="#m49ae6d2de0" y="327.159075"/>
     <use style="stroke:#000000;" x="563.299496" xlink:href="#m49ae6d2de0" y="322.827212"/>
     <use style="stroke:#000000;" x="570.383779" xlink:href="#m49ae6d2de0" y="318.327454"/>
     <use style="stroke:#000000;" x="577.104602" xlink:href="#m49ae6d2de0" y="313.805283"/>
     <use style="stroke:#000000;" x="583.497447" xlink:href="#m49ae6d2de0" y="309.356626"/>
     <use style="stroke:#000000;" x="589.59284" xlink:href="#m49ae6d2de0" y="305.042052"/>
     <use style="stroke:#000000;" x="595.417235" xlink:href="#m49ae6d2de0" y="300.897623"/>
     <use style="stroke:#000000;" x="600.993708" xlink:href="#m49ae6d2de0" y="296.942781"/>
     <use style="stroke:#000000;" x="606.342505" xlink:href="#m49ae6d2de0" y="293.185899"/>
     <use style="stroke:#000000;" x="611.48149" xlink:href="#m49ae6d2de0" y="289.628125"/>
     <use style="stroke:#000000;" x="616.426504" xlink:href="#m49ae6d2de0" y="286.266009"/>
     <use style="stroke:#000000;" x="621.191659" xlink:href="#m49ae6d2de0" y="283.093271"/>
     <use style="stroke:#000000;" x="625.789581" xlink:href="#m49ae6d2de0" y="280.101999"/>
     <use style="stroke:#000000;" x="630.23161" xlink:href="#m49ae6d2de0" y="277.283438"/>
     <use style="stroke:#000000;" x="634.527973" xlink:href="#m49ae6d2de0" y="274.62851"/>
     <use style="stroke:#000000;" x="638.68792" xlink:href="#m49ae6d2de0" y="272.128152"/>
     <use style="stroke:#000000;" x="642.719848" xlink:href="#m49ae6d2de0" y="269.773527"/>
     <use style="stroke:#000000;" x="646.631402" xlink:href="#m49ae6d2de0" y="267.556155"/>
     <use style="stroke:#000000;" x="650.429561" xlink:href="#m49ae6d2de0" y="265.467981"/>
     <use style="stroke:#000000;" x="654.120716" xlink:href="#m49ae6d2de0" y="263.501409"/>
     <use style="stroke:#000000;" x="657.71073" xlink:href="#m49ae6d2de0" y="261.649319"/>
     <use style="stroke:#000000;" x="661.204999" xlink:href="#m49ae6d2de0" y="259.905051"/>
     <use style="stroke:#000000;" x="664.608498" xlink:href="#m49ae6d2de0" y="258.262397"/>
     <use style="stroke:#000000;" x="667.925822" xlink:href="#m49ae6d2de0" y="256.715577"/>
     <use style="stroke:#000000;" x="671.161229" xlink:href="#m49ae6d2de0" y="255.259211"/>
     <use style="stroke:#000000;" x="674.318667" xlink:href="#m49ae6d2de0" y="253.8883"/>
     <use style="stroke:#000000;" x="677.401805" xlink:href="#m49ae6d2de0" y="252.598194"/>
     <use style="stroke:#000000;" x="680.41406" xlink:href="#m49ae6d2de0" y="251.384567"/>
     <use style="stroke:#000000;" x="683.358618" xlink:href="#m49ae6d2de0" y="250.243395"/>
     <use style="stroke:#000000;" x="686.238456" xlink:href="#m49ae6d2de0" y="249.170934"/>
     <use style="stroke:#000000;" x="689.056356" xlink:href="#m49ae6d2de0" y="248.163692"/>
     <use style="stroke:#000000;" x="691.814928" xlink:href="#m49ae6d2de0" y="247.218417"/>
     <use style="stroke:#000000;" x="694.516618" xlink:href="#m49ae6d2de0" y="246.332073"/>
     <use style="stroke:#000000;" x="697.163725" xlink:href="#m49ae6d2de0" y="245.501825"/>
     <use style="stroke:#000000;" x="699.75841" xlink:href="#m49ae6d2de0" y="244.725022"/>
     <use style="stroke:#000000;" x="702.30271" xlink:href="#m49ae6d2de0" y="243.999185"/>
     <use style="stroke:#000000;" x="704.798544" xlink:href="#m49ae6d2de0" y="243.321991"/>
     <use style="stroke:#000000;" x="707.247724" xlink:href="#m49ae6d2de0" y="242.691264"/>
     <use style="stroke:#000000;" x="709.651963" xlink:href="#m49ae6d2de0" y="242.104961"/>
     <use style="stroke:#000000;" x="712.012879" xlink:href="#m49ae6d2de0" y="241.561161"/>
     <use style="stroke:#000000;" x="714.332008" xlink:href="#m49ae6d2de0" y="241.058063"/>
     <use style="stroke:#000000;" x="716.610801" xlink:href="#m49ae6d2de0" y="240.593967"/>
     <use style="stroke:#000000;" x="718.850639" xlink:href="#m49ae6d2de0" y="240.167276"/>
     <use style="stroke:#000000;" x="721.052831" xlink:href="#m49ae6d2de0" y="239.776481"/>
     <use style="stroke:#000000;" x="723.218621" xlink:href="#m49ae6d2de0" y="239.42016"/>
     <use style="stroke:#000000;" x="725.349193" xlink:href="#m49ae6d2de0" y="239.09697"/>
     <use style="stroke:#000000;" x="727.445675" xlink:href="#m49ae6d2de0" y="238.805641"/>
     <use style="stroke:#000000;" x="729.50914" xlink:href="#m49ae6d2de0" y="238.544972"/>
     <use style="stroke:#000000;" x="731.540612" xlink:href="#m49ae6d2de0" y="238.313824"/>
     <use style="stroke:#000000;" x="733.541069" xlink:href="#m49ae6d2de0" y="238.11112"/>
     <use style="stroke:#000000;" x="735.511441" xlink:href="#m49ae6d2de0" y="237.935838"/>
     <use style="stroke:#000000;" x="737.452622" xlink:href="#m49ae6d2de0" y="237.787008"/>
     <use style="stroke:#000000;" x="739.365464" xlink:href="#m49ae6d2de0" y="237.663707"/>
     <use style="stroke:#000000;" x="741.250782" xlink:href="#m49ae6d2de0" y="237.56506"/>
     <use style="stroke:#000000;" x="743.109357" xlink:href="#m49ae6d2de0" y="237.490234"/>
     <use style="stroke:#000000;" x="744.941936" xlink:href="#m49ae6d2de0" y="237.438436"/>
     <use style="stroke:#000000;" x="746.749239" xlink:href="#m49ae6d2de0" y="237.408909"/>
     <use style="stroke:#000000;" x="748.531951" xlink:href="#m49ae6d2de0" y="237.400934"/>
     <use style="stroke:#000000;" x="750.290733" xlink:href="#m49ae6d2de0" y="237.413824"/>
     <use style="stroke:#000000;" x="752.02622" xlink:href="#m49ae6d2de0" y="237.446924"/>
     <use style="stroke:#000000;" x="753.73902" xlink:href="#m49ae6d2de0" y="237.499606"/>
     <use style="stroke:#000000;" x="755.429718" xlink:href="#m49ae6d2de0" y="237.571274"/>
     <use style="stroke:#000000;" x="757.098879" xlink:href="#m49ae6d2de0" y="237.661354"/>
     <use style="stroke:#000000;" x="758.747043" xlink:href="#m49ae6d2de0" y="237.769299"/>
     <use style="stroke:#000000;" x="760.374732" xlink:href="#m49ae6d2de0" y="237.894585"/>
     <use style="stroke:#000000;" x="761.98245" xlink:href="#m49ae6d2de0" y="238.036711"/>
     <use style="stroke:#000000;" x="763.570679" xlink:href="#m49ae6d2de0" y="238.195195"/>
     <use style="stroke:#000000;" x="765.139888" xlink:href="#m49ae6d2de0" y="238.369576"/>
     <use style="stroke:#000000;" x="766.690525" xlink:href="#m49ae6d2de0" y="238.559411"/>
     <use style="stroke:#000000;" x="768.223026" xlink:href="#m49ae6d2de0" y="238.764276"/>
     <use style="stroke:#000000;" x="769.737809" xlink:href="#m49ae6d2de0" y="238.983763"/>
     <use style="stroke:#000000;" x="771.235281" xlink:href="#m49ae6d2de0" y="239.217479"/>
     <use style="stroke:#000000;" x="772.715831" xlink:href="#m49ae6d2de0" y="239.465048"/>
     <use style="stroke:#000000;" x="774.179839" xlink:href="#m49ae6d2de0" y="239.726108"/>
     <use style="stroke:#000000;" x="775.627669" xlink:href="#m49ae6d2de0" y="240.00031"/>
     <use style="stroke:#000000;" x="777.059676" xlink:href="#m49ae6d2de0" y="240.287318"/>
     <use style="stroke:#000000;" x="778.476202" xlink:href="#m49ae6d2de0" y="240.586809"/>
     <use style="stroke:#000000;" x="779.877577" xlink:href="#m49ae6d2de0" y="240.898471"/>
     <use style="stroke:#000000;" x="781.264122" xlink:href="#m49ae6d2de0" y="241.222005"/>
     <use style="stroke:#000000;" x="782.636149" xlink:href="#m49ae6d2de0" y="241.557121"/>
     <use style="stroke:#000000;" x="783.993957" xlink:href="#m49ae6d2de0" y="241.90354"/>
     <use style="stroke:#000000;" x="785.337839" xlink:href="#m49ae6d2de0" y="242.260992"/>
     <use style="stroke:#000000;" x="786.668077" xlink:href="#m49ae6d2de0" y="242.629218"/>
     <use style="stroke:#000000;" x="787.984945" xlink:href="#m49ae6d2de0" y="243.007966"/>
     <use style="stroke:#000000;" x="789.288711" xlink:href="#m49ae6d2de0" y="243.396993"/>
     <use style="stroke:#000000;" x="790.579631" xlink:href="#m49ae6d2de0" y="243.796066"/>
     <use style="stroke:#000000;" x="791.857956" xlink:href="#m49ae6d2de0" y="244.204956"/>
     <use style="stroke:#000000;" x="793.12393" xlink:href="#m49ae6d2de0" y="244.623445"/>
     <use style="stroke:#000000;" x="794.37779" xlink:href="#m49ae6d2de0" y="245.051321"/>
     <use style="stroke:#000000;" x="795.619764" xlink:href="#m49ae6d2de0" y="245.488379"/>
     <use style="stroke:#000000;" x="796.850077" xlink:href="#m49ae6d2de0" y="245.934419"/>
     <use style="stroke:#000000;" x="798.068945" xlink:href="#m49ae6d2de0" y="246.389249"/>
     <use style="stroke:#000000;" x="799.276578" xlink:href="#m49ae6d2de0" y="246.852682"/>
     <use style="stroke:#000000;" x="800.473183" xlink:href="#m49ae6d2de0" y="247.324538"/>
     <use style="stroke:#000000;" x="801.658959" xlink:href="#m49ae6d2de0" y="247.804642"/>
     <use style="stroke:#000000;" x="802.8341" xlink:href="#m49ae6d2de0" y="248.292824"/>
     <use style="stroke:#000000;" x="803.998795" xlink:href="#m49ae6d2de0" y="248.788918"/>
     <use style="stroke:#000000;" x="805.153228" xlink:href="#m49ae6d2de0" y="249.292766"/>
     <use style="stroke:#000000;" x="806.297579" xlink:href="#m49ae6d2de0" y="249.804211"/>
     <use style="stroke:#000000;" x="807.432021" xlink:href="#m49ae6d2de0" y="250.323104"/>
     <use style="stroke:#000000;" x="808.556726" xlink:href="#m49ae6d2de0" y="250.849297"/>
     <use style="stroke:#000000;" x="809.671859" xlink:href="#m49ae6d2de0" y="251.38265"/>
     <use style="stroke:#000000;" x="810.777582" xlink:href="#m49ae6d2de0" y="251.923024"/>
     <use style="stroke:#000000;" x="811.874051" xlink:href="#m49ae6d2de0" y="252.470285"/>
     <use style="stroke:#000000;" x="812.961421" xlink:href="#m49ae6d2de0" y="253.024302"/>
     <use style="stroke:#000000;" x="814.039841" xlink:href="#m49ae6d2de0" y="253.584949"/>
     <use style="stroke:#000000;" x="815.109458" xlink:href="#m49ae6d2de0" y="254.152102"/>
     <use style="stroke:#000000;" x="816.170414" xlink:href="#m49ae6d2de0" y="254.725642"/>
     <use style="stroke:#000000;" x="817.222848" xlink:href="#m49ae6d2de0" y="255.305453"/>
     <use style="stroke:#000000;" x="818.266896" xlink:href="#m49ae6d2de0" y="255.891419"/>
     <use style="stroke:#000000;" x="819.30269" xlink:href="#m49ae6d2de0" y="256.483431"/>
     <use style="stroke:#000000;" x="820.330361" xlink:href="#m49ae6d2de0" y="257.081382"/>
     <use style="stroke:#000000;" x="821.350034" xlink:href="#m49ae6d2de0" y="257.685166"/>
     <use style="stroke:#000000;" x="822.361833" xlink:href="#m49ae6d2de0" y="258.294681"/>
     <use style="stroke:#000000;" x="823.365879" xlink:href="#m49ae6d2de0" y="258.909829"/>
     <use style="stroke:#000000;" x="824.362289" xlink:href="#m49ae6d2de0" y="259.530511"/>
     <use style="stroke:#000000;" x="825.351179" xlink:href="#m49ae6d2de0" y="260.156633"/>
     <use style="stroke:#000000;" x="826.332662" xlink:href="#m49ae6d2de0" y="260.788104"/>
     <use style="stroke:#000000;" x="827.306847" xlink:href="#m49ae6d2de0" y="261.424833"/>
     <use style="stroke:#000000;" x="828.273843" xlink:href="#m49ae6d2de0" y="262.066733"/>
     <use style="stroke:#000000;" x="829.233754" xlink:href="#m49ae6d2de0" y="262.713719"/>
     <use style="stroke:#000000;" x="830.186684" xlink:href="#m49ae6d2de0" y="263.365706"/>
     <use style="stroke:#000000;" x="831.132734" xlink:href="#m49ae6d2de0" y="264.022615"/>
     <use style="stroke:#000000;" x="832.072002" xlink:href="#m49ae6d2de0" y="264.684364"/>
     <use style="stroke:#000000;" x="833.004585" xlink:href="#m49ae6d2de0" y="265.350877"/>
     <use style="stroke:#000000;" x="833.930577" xlink:href="#m49ae6d2de0" y="266.022077"/>
     <use style="stroke:#000000;" x="834.850071" xlink:href="#m49ae6d2de0" y="266.697892"/>
     <use style="stroke:#000000;" x="835.763157" xlink:href="#m49ae6d2de0" y="267.378248"/>
     <use style="stroke:#000000;" x="836.669924" xlink:href="#m49ae6d2de0" y="268.063076"/>
     <use style="stroke:#000000;" x="837.570459" xlink:href="#m49ae6d2de0" y="268.752305"/>
     <use style="stroke:#000000;" x="838.464847" xlink:href="#m49ae6d2de0" y="269.445869"/>
     <use style="stroke:#000000;" x="839.353171" xlink:href="#m49ae6d2de0" y="270.143703"/>
     <use style="stroke:#000000;" x="840.235513" xlink:href="#m49ae6d2de0" y="270.84574"/>
     <use style="stroke:#000000;" x="841.111953" xlink:href="#m49ae6d2de0" y="271.551919"/>
     <use style="stroke:#000000;" x="841.98257" xlink:href="#m49ae6d2de0" y="272.262179"/>
     <use style="stroke:#000000;" x="842.84744" xlink:href="#m49ae6d2de0" y="272.976457"/>
     <use style="stroke:#000000;" x="843.706639" xlink:href="#m49ae6d2de0" y="273.694697"/>
     <use style="stroke:#000000;" x="844.56024" xlink:href="#m49ae6d2de0" y="274.41684"/>
     <use style="stroke:#000000;" x="845.408316" xlink:href="#m49ae6d2de0" y="275.142829"/>
     <use style="stroke:#000000;" x="846.250939" xlink:href="#m49ae6d2de0" y="275.87261"/>
     <use style="stroke:#000000;" x="847.088177" xlink:href="#m49ae6d2de0" y="276.606128"/>
     <use style="stroke:#000000;" x="847.920099" xlink:href="#m49ae6d2de0" y="277.343331"/>
     <use style="stroke:#000000;" x="848.746773" xlink:href="#m49ae6d2de0" y="278.084167"/>
     <use style="stroke:#000000;" x="849.568263" xlink:href="#m49ae6d2de0" y="278.828585"/>
     <use style="stroke:#000000;" x="850.384635" xlink:href="#m49ae6d2de0" y="279.576535"/>
     <use style="stroke:#000000;" x="851.195953" xlink:href="#m49ae6d2de0" y="280.327969"/>
     <use style="stroke:#000000;" x="852.002277" xlink:href="#m49ae6d2de0" y="281.082839"/>
     <use style="stroke:#000000;" x="852.80367" xlink:href="#m49ae6d2de0" y="281.841098"/>
     <use style="stroke:#000000;" x="853.600191" xlink:href="#m49ae6d2de0" y="282.602701"/>
     <use style="stroke:#000000;" x="854.3919" xlink:href="#m49ae6d2de0" y="283.367602"/>
     <use style="stroke:#000000;" x="855.178853" xlink:href="#m49ae6d2de0" y="284.135758"/>
     <use style="stroke:#000000;" x="855.961108" xlink:href="#m49ae6d2de0" y="284.907126"/>
     <use style="stroke:#000000;" x="856.73872" xlink:href="#m49ae6d2de0" y="285.681663"/>
     <use style="stroke:#000000;" x="857.511745" xlink:href="#m49ae6d2de0" y="286.459327"/>
     <use style="stroke:#000000;" x="858.280236" xlink:href="#m49ae6d2de0" y="287.24008"/>
     <use style="stroke:#000000;" x="859.044246" xlink:href="#m49ae6d2de0" y="288.023879"/>
     <use style="stroke:#000000;" x="859.803827" xlink:href="#m49ae6d2de0" y="288.810687"/>
     <use style="stroke:#000000;" x="860.55903" xlink:href="#m49ae6d2de0" y="289.600464"/>
     <use style="stroke:#000000;" x="861.309905" xlink:href="#m49ae6d2de0" y="290.393174"/>
     <use style="stroke:#000000;" x="862.056501" xlink:href="#m49ae6d2de0" y="291.18878"/>
     <use style="stroke:#000000;" x="862.798867" xlink:href="#m49ae6d2de0" y="291.987244"/>
     <use style="stroke:#000000;" x="863.537052" xlink:href="#m49ae6d2de0" y="292.788532"/>
     <use style="stroke:#000000;" x="864.2711" xlink:href="#m49ae6d2de0" y="293.592609"/>
     <use style="stroke:#000000;" x="865.001059" xlink:href="#m49ae6d2de0" y="294.39944"/>
     <use style="stroke:#000000;" x="865.726974" xlink:href="#m49ae6d2de0" y="295.208991"/>
     <use style="stroke:#000000;" x="866.44889" xlink:href="#m49ae6d2de0" y="296.02123"/>
     <use style="stroke:#000000;" x="867.166849" xlink:href="#m49ae6d2de0" y="296.836125"/>
     <use style="stroke:#000000;" x="867.880897" xlink:href="#m49ae6d2de0" y="297.653642"/>
     <use style="stroke:#000000;" x="868.591074" xlink:href="#m49ae6d2de0" y="298.473752"/>
     <use style="stroke:#000000;" x="869.297422" xlink:href="#m49ae6d2de0" y="299.296423"/>
     <use style="stroke:#000000;" x="869.999983" xlink:href="#m49ae6d2de0" y="300.121625"/>
     <use style="stroke:#000000;" x="870.698797" xlink:href="#m49ae6d2de0" y="300.949328"/>
     <use style="stroke:#000000;" x="871.393904" xlink:href="#m49ae6d2de0" y="301.779504"/>
     <use style="stroke:#000000;" x="872.085343" xlink:href="#m49ae6d2de0" y="302.612123"/>
     <use style="stroke:#000000;" x="872.773152" xlink:href="#m49ae6d2de0" y="303.447157"/>
     <use style="stroke:#000000;" x="873.457369" xlink:href="#m49ae6d2de0" y="304.284579"/>
     <use style="stroke:#000000;" x="874.138032" xlink:href="#m49ae6d2de0" y="305.124361"/>
     <use style="stroke:#000000;" x="874.815177" xlink:href="#m49ae6d2de0" y="305.966477"/>
     <use style="stroke:#000000;" x="875.488841" xlink:href="#m49ae6d2de0" y="306.8109"/>
     <use style="stroke:#000000;" x="876.159059" xlink:href="#m49ae6d2de0" y="307.657605"/>
     <use style="stroke:#000000;" x="876.825866" xlink:href="#m49ae6d2de0" y="308.506566"/>
     <use style="stroke:#000000;" x="877.489297" xlink:href="#m49ae6d2de0" y="309.357757"/>
     <use style="stroke:#000000;" x="878.149386" xlink:href="#m49ae6d2de0" y="310.211155"/>
     <use style="stroke:#000000;" x="878.806166" xlink:href="#m49ae6d2de0" y="311.066736"/>
     <use style="stroke:#000000;" x="879.45967" xlink:href="#m49ae6d2de0" y="311.924474"/>
     <use style="stroke:#000000;" x="880.109931" xlink:href="#m49ae6d2de0" y="312.784347"/>
     <use style="stroke:#000000;" x="880.756981" xlink:href="#m49ae6d2de0" y="313.646333"/>
     <use style="stroke:#000000;" x="881.400851" xlink:href="#m49ae6d2de0" y="314.510407"/>
     <use style="stroke:#000000;" x="882.041573" xlink:href="#m49ae6d2de0" y="315.376548"/>
     <use style="stroke:#000000;" x="882.679176" xlink:href="#m49ae6d2de0" y="316.244734"/>
     <use style="stroke:#000000;" x="883.313693" xlink:href="#m49ae6d2de0" y="317.114943"/>
     <use style="stroke:#000000;" x="883.945151" xlink:href="#m49ae6d2de0" y="317.987154"/>
     <use style="stroke:#000000;" x="884.57358" xlink:href="#m49ae6d2de0" y="318.861346"/>
     <use style="stroke:#000000;" x="885.19901" xlink:href="#m49ae6d2de0" y="319.737499"/>
     <use style="stroke:#000000;" x="885.821469" xlink:href="#m49ae6d2de0" y="320.615591"/>
     <use style="stroke:#000000;" x="886.440985" xlink:href="#m49ae6d2de0" y="321.495604"/>
     <use style="stroke:#000000;" x="887.057585" xlink:href="#m49ae6d2de0" y="322.377517"/>
     <use style="stroke:#000000;" x="887.671297" xlink:href="#m49ae6d2de0" y="323.261311"/>
     <use style="stroke:#000000;" x="888.282148" xlink:href="#m49ae6d2de0" y="324.146966"/>
     <use style="stroke:#000000;" x="888.890165" xlink:href="#m49ae6d2de0" y="325.034465"/>
     <use style="stroke:#000000;" x="889.495373" xlink:href="#m49ae6d2de0" y="325.923788"/>
     <use style="stroke:#000000;" x="890.097799" xlink:href="#m49ae6d2de0" y="326.814918"/>
     <use style="stroke:#000000;" x="890.697467" xlink:href="#m49ae6d2de0" y="327.707836"/>
     <use style="stroke:#000000;" x="891.294404" xlink:href="#m49ae6d2de0" y="328.602524"/>
     <use style="stroke:#000000;" x="891.888633" xlink:href="#m49ae6d2de0" y="329.498966"/>
     <use style="stroke:#000000;" x="892.480179" xlink:href="#m49ae6d2de0" y="330.397143"/>
     <use style="stroke:#000000;" x="893.069067" xlink:href="#m49ae6d2de0" y="331.297039"/>
     <use style="stroke:#000000;" x="893.65532" xlink:href="#m49ae6d2de0" y="332.198638"/>
     <use style="stroke:#000000;" x="894.238962" xlink:href="#m49ae6d2de0" y="333.101922"/>
     <use style="stroke:#000000;" x="894.820015" xlink:href="#m49ae6d2de0" y="334.006876"/>
     <use style="stroke:#000000;" x="895.398503" xlink:href="#m49ae6d2de0" y="334.913484"/>
     <use style="stroke:#000000;" x="895.974448" xlink:href="#m49ae6d2de0" y="335.821729"/>
     <use style="stroke:#000000;" x="896.547873" xlink:href="#m49ae6d2de0" y="336.731596"/>
     <use style="stroke:#000000;" x="897.118799" xlink:href="#m49ae6d2de0" y="337.643071"/>
     <use style="stroke:#000000;" x="897.687248" xlink:href="#m49ae6d2de0" y="338.556137"/>
     <use style="stroke:#000000;" x="898.253242" xlink:href="#m49ae6d2de0" y="339.47078"/>
     <use style="stroke:#000000;" x="898.816801" xlink:href="#m49ae6d2de0" y="340.386985"/>
     <use style="stroke:#000000;" x="899.377947" xlink:href="#m49ae6d2de0" y="341.304739"/>
     <use style="stroke:#000000;" x="899.9367" xlink:href="#m49ae6d2de0" y="342.224025"/>
     <use style="stroke:#000000;" x="900.49308" xlink:href="#m49ae6d2de0" y="343.144831"/>
     <use style="stroke:#000000;" x="901.047107" xlink:href="#m49ae6d2de0" y="344.067142"/>
     <use style="stroke:#000000;" x="901.598802" xlink:href="#m49ae6d2de0" y="344.990945"/>
     <use style="stroke:#000000;" x="902.148184" xlink:href="#m49ae6d2de0" y="345.916227"/>
     <use style="stroke:#000000;" x="902.695271" xlink:href="#m49ae6d2de0" y="346.842973"/>
     <use style="stroke:#000000;" x="903.240084" xlink:href="#m49ae6d2de0" y="347.771171"/>
     <use style="stroke:#000000;" x="903.782641" xlink:href="#m49ae6d2de0" y="348.700807"/>
     <use style="stroke:#000000;" x="904.322961" xlink:href="#m49ae6d2de0" y="349.631869"/>
     <use style="stroke:#000000;" x="904.861062" xlink:href="#m49ae6d2de0" y="350.564345"/>
     <use style="stroke:#000000;" x="905.396961" xlink:href="#m49ae6d2de0" y="351.498222"/>
     <use style="stroke:#000000;" x="905.930678" xlink:href="#m49ae6d2de0" y="352.433486"/>
     <use style="stroke:#000000;" x="906.46223" xlink:href="#m49ae6d2de0" y="353.370128"/>
     <use style="stroke:#000000;" x="906.991634" xlink:href="#m49ae6d2de0" y="354.308133"/>
     <use style="stroke:#000000;" x="907.518908" xlink:href="#m49ae6d2de0" y="355.247491"/>
     <use style="stroke:#000000;" x="908.044068" xlink:href="#m49ae6d2de0" y="356.18819"/>
     <use style="stroke:#000000;" x="908.567132" xlink:href="#m49ae6d2de0" y="357.130217"/>
     <use style="stroke:#000000;" x="909.088116" xlink:href="#m49ae6d2de0" y="358.073563"/>
     <use style="stroke:#000000;" x="909.607037" xlink:href="#m49ae6d2de0" y="359.018215"/>
     <use style="stroke:#000000;" x="910.123911" xlink:href="#m49ae6d2de0" y="359.964163"/>
     <use style="stroke:#000000;" x="910.638753" xlink:href="#m49ae6d2de0" y="360.911395"/>
     <use style="stroke:#000000;" x="911.151581" xlink:href="#m49ae6d2de0" y="361.859901"/>
     <use style="stroke:#000000;" x="911.66241" xlink:href="#m49ae6d2de0" y="362.80967"/>
     <use style="stroke:#000000;" x="912.171254" xlink:href="#m49ae6d2de0" y="363.760692"/>
     <use style="stroke:#000000;" x="912.67813" xlink:href="#m49ae6d2de0" y="364.712955"/>
     <use style="stroke:#000000;" x="913.183053" xlink:href="#m49ae6d2de0" y="365.66645"/>
     <use style="stroke:#000000;" x="913.686038" xlink:href="#m49ae6d2de0" y="366.621167"/>
     <use style="stroke:#000000;" x="914.187099" xlink:href="#m49ae6d2de0" y="367.577095"/>
     <use style="stroke:#000000;" x="914.686251" xlink:href="#m49ae6d2de0" y="368.534225"/>
     <use style="stroke:#000000;" x="915.183509" xlink:href="#m49ae6d2de0" y="369.492547"/>
     <use style="stroke:#000000;" x="915.678887" xlink:href="#m49ae6d2de0" y="370.45205"/>
     <use style="stroke:#000000;" x="916.172399" xlink:href="#m49ae6d2de0" y="371.412727"/>
     <use style="stroke:#000000;" x="916.66406" xlink:href="#m49ae6d2de0" y="372.374566"/>
     <use style="stroke:#000000;" x="917.153882" xlink:href="#m49ae6d2de0" y="373.337559"/>
     <use style="stroke:#000000;" x="917.64188" xlink:href="#m49ae6d2de0" y="374.301697"/>
     <use style="stroke:#000000;" x="918.128067" xlink:href="#m49ae6d2de0" y="375.26697"/>
     <use style="stroke:#000000;" x="918.612457" xlink:href="#m49ae6d2de0" y="376.233369"/>
     <use style="stroke:#000000;" x="919.095063" xlink:href="#m49ae6d2de0" y="377.200886"/>
     <use style="stroke:#000000;" x="919.575898" xlink:href="#m49ae6d2de0" y="378.169512"/>
     <use style="stroke:#000000;" x="920.054975" xlink:href="#m49ae6d2de0" y="379.139237"/>
     <use style="stroke:#000000;" x="920.532306" xlink:href="#m49ae6d2de0" y="380.110055"/>
     <use style="stroke:#000000;" x="921.007905" xlink:href="#m49ae6d2de0" y="381.081955"/>
     <use style="stroke:#000000;" x="921.481783" xlink:href="#m49ae6d2de0" y="382.054929"/>
     <use style="stroke:#000000;" x="921.953955" xlink:href="#m49ae6d2de0" y="383.02897"/>
     <use style="stroke:#000000;" x="922.42443" xlink:href="#m49ae6d2de0" y="384.004069"/>
     <use style="stroke:#000000;" x="922.893223" xlink:href="#m49ae6d2de0" y="384.980218"/>
     <use style="stroke:#000000;" x="923.360344" xlink:href="#m49ae6d2de0" y="385.957409"/>
     <use style="stroke:#000000;" x="923.825805" xlink:href="#m49ae6d2de0" y="386.935633"/>
     <use style="stroke:#000000;" x="924.289619" xlink:href="#m49ae6d2de0" y="387.914884"/>
     <use style="stroke:#000000;" x="924.751797" xlink:href="#m49ae6d2de0" y="388.895154"/>
     <use style="stroke:#000000;" x="925.212351" xlink:href="#m49ae6d2de0" y="389.876434"/>
     <use style="stroke:#000000;" x="925.671291" xlink:href="#m49ae6d2de0" y="390.858717"/>
     <use style="stroke:#000000;" x="926.128629" xlink:href="#m49ae6d2de0" y="391.841996"/>
     <use style="stroke:#000000;" x="926.584377" xlink:href="#m49ae6d2de0" y="392.826264"/>
     <use style="stroke:#000000;" x="927.038545" xlink:href="#m49ae6d2de0" y="393.811512"/>
     <use style="stroke:#000000;" x="927.491144" xlink:href="#m49ae6d2de0" y="394.797734"/>
     <use style="stroke:#000000;" x="927.942185" xlink:href="#m49ae6d2de0" y="395.784922"/>
     <use style="stroke:#000000;" x="928.391679" xlink:href="#m49ae6d2de0" y="396.77307"/>
     <use style="stroke:#000000;" x="928.839636" xlink:href="#m49ae6d2de0" y="397.762171"/>
     <use style="stroke:#000000;" x="929.286067" xlink:href="#m49ae6d2de0" y="398.752217"/>
     <use style="stroke:#000000;" x="929.730982" xlink:href="#m49ae6d2de0" y="399.743202"/>
     <use style="stroke:#000000;" x="930.174391" xlink:href="#m49ae6d2de0" y="400.735119"/>
     <use style="stroke:#000000;" x="930.616305" xlink:href="#m49ae6d2de0" y="401.72796"/>
     <use style="stroke:#000000;" x="931.056734" xlink:href="#m49ae6d2de0" y="402.721721"/>
     <use style="stroke:#000000;" x="931.495687" xlink:href="#m49ae6d2de0" y="403.716393"/>
     <use style="stroke:#000000;" x="931.933174" xlink:href="#m49ae6d2de0" y="404.711971"/>
     <use style="stroke:#000000;" x="932.369205" xlink:href="#m49ae6d2de0" y="405.708448"/>
     <use style="stroke:#000000;" x="932.803791" xlink:href="#m49ae6d2de0" y="406.705818"/>
     <use style="stroke:#000000;" x="933.236939" xlink:href="#m49ae6d2de0" y="407.704074"/>
     <use style="stroke:#000000;" x="933.66866" xlink:href="#m49ae6d2de0" y="408.703211"/>
     <use style="stroke:#000000;" x="934.098964" xlink:href="#m49ae6d2de0" y="409.703221"/>
     <use style="stroke:#000000;" x="934.527859" xlink:href="#m49ae6d2de0" y="410.704099"/>
     <use style="stroke:#000000;" x="934.955355" xlink:href="#m49ae6d2de0" y="411.70584"/>
     <use style="stroke:#000000;" x="935.38146" xlink:href="#m49ae6d2de0" y="412.708436"/>
     <use style="stroke:#000000;" x="935.806185" xlink:href="#m49ae6d2de0" y="413.711882"/>
     <use style="stroke:#000000;" x="936.229537" xlink:href="#m49ae6d2de0" y="414.716172"/>
     <use style="stroke:#000000;" x="936.651525" xlink:href="#m49ae6d2de0" y="415.721301"/>
     <use style="stroke:#000000;" x="937.072159" xlink:href="#m49ae6d2de0" y="416.727263"/>
     <use style="stroke:#000000;" x="937.491447" xlink:href="#m49ae6d2de0" y="417.734051"/>
     <use style="stroke:#000000;" x="937.909397" xlink:href="#m49ae6d2de0" y="418.741661"/>
     <use style="stroke:#000000;" x="938.326019" xlink:href="#m49ae6d2de0" y="419.750087"/>
     <use style="stroke:#000000;" x="938.741319" xlink:href="#m49ae6d2de0" y="420.759322"/>
     <use style="stroke:#000000;" x="939.155308" xlink:href="#m49ae6d2de0" y="421.769363"/>
     <use style="stroke:#000000;" x="939.567993" xlink:href="#m49ae6d2de0" y="422.780204"/>
     <use style="stroke:#000000;" x="939.979382" xlink:href="#m49ae6d2de0" y="423.791838"/>
     <use style="stroke:#000000;" x="940.389484" xlink:href="#m49ae6d2de0" y="424.804261"/>
     <use style="stroke:#000000;" x="940.798306" xlink:href="#m49ae6d2de0" y="425.817468"/>
     <use style="stroke:#000000;" x="941.205856" xlink:href="#m49ae6d2de0" y="426.831454"/>
     <use style="stroke:#000000;" x="941.612142" xlink:href="#m49ae6d2de0" y="427.846213"/>
     <use style="stroke:#000000;" x="942.017173" xlink:href="#m49ae6d2de0" y="428.86174"/>
     <use style="stroke:#000000;" x="942.420956" xlink:href="#m49ae6d2de0" y="429.87803"/>
     <use style="stroke:#000000;" x="942.823498" xlink:href="#m49ae6d2de0" y="430.895078"/>
     <use style="stroke:#000000;" x="943.224807" xlink:href="#m49ae6d2de0" y="431.91288"/>
     <use style="stroke:#000000;" x="943.624891" xlink:href="#m49ae6d2de0" y="432.93143"/>
     <use style="stroke:#000000;" x="944.023756" xlink:href="#m49ae6d2de0" y="433.950724"/>
     <use style="stroke:#000000;" x="944.421412" xlink:href="#m49ae6d2de0" y="434.970756"/>
     <use style="stroke:#000000;" x="944.817864" xlink:href="#m49ae6d2de0" y="435.991523"/>
     <use style="stroke:#000000;" x="945.21312" xlink:href="#m49ae6d2de0" y="437.013019"/>
     <use style="stroke:#000000;" x="945.607187" xlink:href="#m49ae6d2de0" y="438.03524"/>
     <use style="stroke:#000000;" x="946.000073" xlink:href="#m49ae6d2de0" y="439.05818"/>
     <use style="stroke:#000000;" x="946.391785" xlink:href="#m49ae6d2de0" y="440.081837"/>
     <use style="stroke:#000000;" x="946.782328" xlink:href="#m49ae6d2de0" y="441.106204"/>
     <use style="stroke:#000000;" x="947.171711" xlink:href="#m49ae6d2de0" y="442.131278"/>
     <use style="stroke:#000000;" x="947.559941" xlink:href="#m49ae6d2de0" y="443.157054"/>
     <use style="stroke:#000000;" x="947.947023" xlink:href="#m49ae6d2de0" y="444.183527"/>
     <use style="stroke:#000000;" x="948.332966" xlink:href="#m49ae6d2de0" y="445.210694"/>
     <use style="stroke:#000000;" x="948.717774" xlink:href="#m49ae6d2de0" y="446.23855"/>
     <use style="stroke:#000000;" x="949.101456" xlink:href="#m49ae6d2de0" y="447.267091"/>
     <use style="stroke:#000000;" x="949.484018" xlink:href="#m49ae6d2de0" y="448.296312"/>
     <use style="stroke:#000000;" x="949.865466" xlink:href="#m49ae6d2de0" y="449.326209"/>
     <use style="stroke:#000000;" x="950.245807" xlink:href="#m49ae6d2de0" y="450.356779"/>
     <use style="stroke:#000000;" x="950.625047" xlink:href="#m49ae6d2de0" y="451.388017"/>
     <use style="stroke:#000000;" x="951.003193" xlink:href="#m49ae6d2de0" y="452.419919"/>
     <use style="stroke:#000000;" x="951.38025" xlink:href="#m49ae6d2de0" y="453.45248"/>
     <use style="stroke:#000000;" x="951.756225" xlink:href="#m49ae6d2de0" y="454.485698"/>
     <use style="stroke:#000000;" x="952.131125" xlink:href="#m49ae6d2de0" y="455.519567"/>
     <use style="stroke:#000000;" x="952.504955" xlink:href="#m49ae6d2de0" y="456.554085"/>
     <use style="stroke:#000000;" x="952.877721" xlink:href="#m49ae6d2de0" y="457.589246"/>
     <use style="stroke:#000000;" x="953.24943" xlink:href="#m49ae6d2de0" y="458.625048"/>
     <use style="stroke:#000000;" x="953.620088" xlink:href="#m49ae6d2de0" y="459.661486"/>
     <use style="stroke:#000000;" x="953.9897" xlink:href="#m49ae6d2de0" y="460.698557"/>
     <use style="stroke:#000000;" x="954.358272" xlink:href="#m49ae6d2de0" y="461.736257"/>
     <use style="stroke:#000000;" x="954.72581" xlink:href="#m49ae6d2de0" y="462.774582"/>
     <use style="stroke:#000000;" x="955.09232" xlink:href="#m49ae6d2de0" y="463.813528"/>
     <use style="stroke:#000000;" x="955.457808" xlink:href="#m49ae6d2de0" y="464.853092"/>
     <use style="stroke:#000000;" x="955.82228" xlink:href="#m49ae6d2de0" y="465.89327"/>
     <use style="stroke:#000000;" x="956.18574" xlink:href="#m49ae6d2de0" y="466.934058"/>
     <use style="stroke:#000000;" x="956.548195" xlink:href="#m49ae6d2de0" y="467.975454"/>
     <use style="stroke:#000000;" x="956.90965" xlink:href="#m49ae6d2de0" y="469.017453"/>
     <use style="stroke:#000000;" x="957.27011" xlink:href="#m49ae6d2de0" y="470.060052"/>
     <use style="stroke:#000000;" x="957.629582" xlink:href="#m49ae6d2de0" y="471.103247"/>
     <use style="stroke:#000000;" x="957.98807" xlink:href="#m49ae6d2de0" y="472.147036"/>
     <use style="stroke:#000000;" x="958.34558" xlink:href="#m49ae6d2de0" y="473.191414"/>
     <use style="stroke:#000000;" x="958.702117" xlink:href="#m49ae6d2de0" y="474.236378"/>
     <use style="stroke:#000000;" x="959.057687" xlink:href="#m49ae6d2de0" y="475.281925"/>
     <use style="stroke:#000000;" x="959.412294" xlink:href="#m49ae6d2de0" y="476.328051"/>
     <use style="stroke:#000000;" x="959.765944" xlink:href="#m49ae6d2de0" y="477.374754"/>
     <use style="stroke:#000000;" x="960.118642" xlink:href="#m49ae6d2de0" y="478.42203"/>
     <use style="stroke:#000000;" x="960.470394" xlink:href="#m49ae6d2de0" y="479.469875"/>
     <use style="stroke:#000000;" x="960.821203" xlink:href="#m49ae6d2de0" y="480.518287"/>
     <use style="stroke:#000000;" x="961.171076" xlink:href="#m49ae6d2de0" y="481.567262"/>
     <use style="stroke:#000000;" x="961.520017" xlink:href="#m49ae6d2de0" y="482.616797"/>
     <use style="stroke:#000000;" x="961.868032" xlink:href="#m49ae6d2de0" y="483.66689"/>
     <use style="stroke:#000000;" x="962.215124" xlink:href="#m49ae6d2de0" y="484.717536"/>
     <use style="stroke:#000000;" x="962.5613" xlink:href="#m49ae6d2de0" y="485.768733"/>
     <use style="stroke:#000000;" x="962.906563" xlink:href="#m49ae6d2de0" y="486.820477"/>
     <use style="stroke:#000000;" x="963.250919" xlink:href="#m49ae6d2de0" y="487.872767"/>
     <use style="stroke:#000000;" x="963.594372" xlink:href="#m49ae6d2de0" y="488.925598"/>
     <use style="stroke:#000000;" x="963.936927" xlink:href="#m49ae6d2de0" y="489.978967"/>
     <use style="stroke:#000000;" x="964.278589" xlink:href="#m49ae6d2de0" y="491.032873"/>
     <use style="stroke:#000000;" x="964.619363" xlink:href="#m49ae6d2de0" y="492.087311"/>
     <use style="stroke:#000000;" x="964.959252" xlink:href="#m49ae6d2de0" y="493.142279"/>
     <use style="stroke:#000000;" x="965.298262" xlink:href="#m49ae6d2de0" y="494.197774"/>
     <use style="stroke:#000000;" x="965.636398" xlink:href="#m49ae6d2de0" y="495.253794"/>
     <use style="stroke:#000000;" x="965.973662" xlink:href="#m49ae6d2de0" y="496.310334"/>
     <use style="stroke:#000000;" x="966.310061" xlink:href="#m49ae6d2de0" y="497.367393"/>
     <use style="stroke:#000000;" x="966.645599" xlink:href="#m49ae6d2de0" y="498.424968"/>
     <use style="stroke:#000000;" x="966.980279" xlink:href="#m49ae6d2de0" y="499.483056"/>
     <use style="stroke:#000000;" x="967.314107" xlink:href="#m49ae6d2de0" y="500.541654"/>
     <use style="stroke:#000000;" x="967.647087" xlink:href="#m49ae6d2de0" y="501.600759"/>
     <use style="stroke:#000000;" x="967.979222" xlink:href="#m49ae6d2de0" y="502.66037"/>
     <use style="stroke:#000000;" x="968.310517" xlink:href="#m49ae6d2de0" y="503.720482"/>
     <use style="stroke:#000000;" x="968.640977" xlink:href="#m49ae6d2de0" y="504.781093"/>
     <use style="stroke:#000000;" x="968.970606" xlink:href="#m49ae6d2de0" y="505.842202"/>
     <use style="stroke:#000000;" x="969.299408" xlink:href="#m49ae6d2de0" y="506.903804"/>
     <use style="stroke:#000000;" x="969.627386" xlink:href="#m49ae6d2de0" y="507.965898"/>
     <use style="stroke:#000000;" x="969.954546" xlink:href="#m49ae6d2de0" y="509.028481"/>
     <use style="stroke:#000000;" x="970.28089" xlink:href="#m49ae6d2de0" y="510.09155"/>
     <use style="stroke:#000000;" x="970.606424" xlink:href="#m49ae6d2de0" y="511.155103"/>
     <use style="stroke:#000000;" x="970.931151" xlink:href="#m49ae6d2de0" y="512.219138"/>
     <use style="stroke:#000000;" x="971.255076" xlink:href="#m49ae6d2de0" y="513.283651"/>
     <use style="stroke:#000000;" x="971.578201" xlink:href="#m49ae6d2de0" y="514.348641"/>
     <use style="stroke:#000000;" x="971.900532" xlink:href="#m49ae6d2de0" y="515.414104"/>
     <use style="stroke:#000000;" x="972.222071" xlink:href="#m49ae6d2de0" y="516.480039"/>
     <use style="stroke:#000000;" x="972.542824" xlink:href="#m49ae6d2de0" y="517.546443"/>
     <use style="stroke:#000000;" x="972.862793" xlink:href="#m49ae6d2de0" y="518.613314"/>
     <use style="stroke:#000000;" x="973.181983" xlink:href="#m49ae6d2de0" y="519.680649"/>
     <use style="stroke:#000000;" x="973.500397" xlink:href="#m49ae6d2de0" y="520.748445"/>
     <use style="stroke:#000000;" x="973.818039" xlink:href="#m49ae6d2de0" y="521.816701"/>
     <use style="stroke:#000000;" x="974.134913" xlink:href="#m49ae6d2de0" y="522.885415"/>
     <use style="stroke:#000000;" x="974.451022" xlink:href="#m49ae6d2de0" y="523.954583"/>
     <use style="stroke:#000000;" x="974.766371" xlink:href="#m49ae6d2de0" y="525.024204"/>
     <use style="stroke:#000000;" x="975.080963" xlink:href="#m49ae6d2de0" y="526.094275"/>
     <use style="stroke:#000000;" x="975.394801" xlink:href="#m49ae6d2de0" y="527.164794"/>
     <use style="stroke:#000000;" x="975.707889" xlink:href="#m49ae6d2de0" y="528.235758"/>
     <use style="stroke:#000000;" x="976.020231" xlink:href="#m49ae6d2de0" y="529.307167"/>
     <use style="stroke:#000000;" x="976.33183" xlink:href="#m49ae6d2de0" y="530.379016"/>
     <use style="stroke:#000000;" x="976.642689" xlink:href="#m49ae6d2de0" y="531.451305"/>
     <use style="stroke:#000000;" x="976.952813" xlink:href="#m49ae6d2de0" y="532.524031"/>
     <use style="stroke:#000000;" x="977.262205" xlink:href="#m49ae6d2de0" y="533.597191"/>
     <use style="stroke:#000000;" x="977.570868" xlink:href="#m49ae6d2de0" y="534.670785"/>
     <use style="stroke:#000000;" x="977.878805" xlink:href="#m49ae6d2de0" y="535.744808"/>
     <use style="stroke:#000000;" x="978.186021" xlink:href="#m49ae6d2de0" y="536.81926"/>
     <use style="stroke:#000000;" x="978.492518" xlink:href="#m49ae6d2de0" y="537.894138"/>
     <use style="stroke:#000000;" x="978.798299" xlink:href="#m49ae6d2de0" y="538.969441"/>
     <use style="stroke:#000000;" x="979.103369" xlink:href="#m49ae6d2de0" y="540.045166"/>
     <use style="stroke:#000000;" x="979.40773" xlink:href="#m49ae6d2de0" y="541.12131"/>
     <use style="stroke:#000000;" x="979.711385" xlink:href="#m49ae6d2de0" y="542.197873"/>
     <use style="stroke:#000000;" x="980.014339" xlink:href="#m49ae6d2de0" y="543.274852"/>
     <use style="stroke:#000000;" x="980.316593" xlink:href="#m49ae6d2de0" y="544.352244"/>
     <use style="stroke:#000000;" x="980.618152" xlink:href="#m49ae6d2de0" y="545.430049"/>
     <use style="stroke:#000000;" x="980.919019" xlink:href="#m49ae6d2de0" y="546.508264"/>
     <use style="stroke:#000000;" x="981.219196" xlink:href="#m49ae6d2de0" y="547.586887"/>
     <use style="stroke:#000000;" x="981.518687" xlink:href="#m49ae6d2de0" y="548.665916"/>
     <use style="stroke:#000000;" x="981.817496" xlink:href="#m49ae6d2de0" y="549.745349"/>
     <use style="stroke:#000000;" x="982.115624" xlink:href="#m49ae6d2de0" y="550.825184"/>
     <use style="stroke:#000000;" x="982.413075" xlink:href="#m49ae6d2de0" y="551.90542"/>
     <use style="stroke:#000000;" x="982.709853" xlink:href="#m49ae6d2de0" y="552.986054"/>
     <use style="stroke:#000000;" x="983.00596" xlink:href="#m49ae6d2de0" y="554.067084"/>
     <use style="stroke:#000000;" x="983.3014" xlink:href="#m49ae6d2de0" y="555.148509"/>
     <use style="stroke:#000000;" x="983.596174" xlink:href="#m49ae6d2de0" y="556.230327"/>
     <use style="stroke:#000000;" x="983.890287" xlink:href="#m49ae6d2de0" y="557.312536"/>
     <use style="stroke:#000000;" x="984.183742" xlink:href="#m49ae6d2de0" y="558.395135"/>
     <use style="stroke:#000000;" x="984.47654" xlink:href="#m49ae6d2de0" y="559.47812"/>
     <use style="stroke:#000000;" x="984.768686" xlink:href="#m49ae6d2de0" y="560.561491"/>
     <use style="stroke:#000000;" x="985.060182" xlink:href="#m49ae6d2de0" y="561.645246"/>
     <use style="stroke:#000000;" x="985.351031" xlink:href="#m49ae6d2de0" y="562.729382"/>
     <use style="stroke:#000000;" x="985.641235" xlink:href="#m49ae6d2de0" y="563.813899"/>
     <use style="stroke:#000000;" x="985.930799" xlink:href="#m49ae6d2de0" y="564.898794"/>
     <use style="stroke:#000000;" x="986.219723" xlink:href="#m49ae6d2de0" y="565.984066"/>
     <use style="stroke:#000000;" x="986.508013" xlink:href="#m49ae6d2de0" y="567.069712"/>
     <use style="stroke:#000000;" x="986.795669" xlink:href="#m49ae6d2de0" y="568.155732"/>
     <use style="stroke:#000000;" x="987.082695" xlink:href="#m49ae6d2de0" y="569.242124"/>
     <use style="stroke:#000000;" x="987.369093" xlink:href="#m49ae6d2de0" y="570.328885"/>
     <use style="stroke:#000000;" x="987.654867" xlink:href="#m49ae6d2de0" y="571.416014"/>
     <use style="stroke:#000000;" x="987.940019" xlink:href="#m49ae6d2de0" y="572.50351"/>
     <use style="stroke:#000000;" x="988.224552" xlink:href="#m49ae6d2de0" y="573.59137"/>
     <use style="stroke:#000000;" x="988.508469" xlink:href="#m49ae6d2de0" y="574.679594"/>
     <use style="stroke:#000000;" x="988.791771" xlink:href="#m49ae6d2de0" y="575.768179"/>
     <use style="stroke:#000000;" x="989.074462" xlink:href="#m49ae6d2de0" y="576.857124"/>
     <use style="stroke:#000000;" x="989.356545" xlink:href="#m49ae6d2de0" y="577.946427"/>
     <use style="stroke:#000000;" x="989.638021" xlink:href="#m49ae6d2de0" y="579.036087"/>
     <use style="stroke:#000000;" x="989.918895" xlink:href="#m49ae6d2de0" y="580.126102"/>
     <use style="stroke:#000000;" x="990.199167" xlink:href="#m49ae6d2de0" y="581.21647"/>
     <use style="stroke:#000000;" x="990.478841" xlink:href="#m49ae6d2de0" y="582.30719"/>
     <use style="stroke:#000000;" x="990.75792" xlink:href="#m49ae6d2de0" y="583.39826"/>
     <use style="stroke:#000000;" x="991.036405" xlink:href="#m49ae6d2de0" y="584.48968"/>
     <use style="stroke:#000000;" x="991.3143" xlink:href="#m49ae6d2de0" y="585.581446"/>
     <use style="stroke:#000000;" x="991.591607" xlink:href="#m49ae6d2de0" y="586.673558"/>
     <use style="stroke:#000000;" x="991.868328" xlink:href="#m49ae6d2de0" y="587.766014"/>
     <use style="stroke:#000000;" x="992.144465" xlink:href="#m49ae6d2de0" y="588.858813"/>
     <use style="stroke:#000000;" x="992.420022" xlink:href="#m49ae6d2de0" y="589.951953"/>
     <use style="stroke:#000000;" x="992.695001" xlink:href="#m49ae6d2de0" y="591.045432"/>
     <use style="stroke:#000000;" x="992.969404" xlink:href="#m49ae6d2de0" y="592.13925"/>
     <use style="stroke:#000000;" x="993.243233" xlink:href="#m49ae6d2de0" y="593.233404"/>
     <use style="stroke:#000000;" x="993.516492" xlink:href="#m49ae6d2de0" y="594.327894"/>
     <use style="stroke:#000000;" x="993.789181" xlink:href="#m49ae6d2de0" y="595.422717"/>
     <use style="stroke:#000000;" x="994.061305" xlink:href="#m49ae6d2de0" y="596.517872"/>
     <use style="stroke:#000000;" x="994.332864" xlink:href="#m49ae6d2de0" y="597.613359"/>
     <use style="stroke:#000000;" x="994.603862" xlink:href="#m49ae6d2de0" y="598.709175"/>
     <use style="stroke:#000000;" x="994.8743" xlink:href="#m49ae6d2de0" y="599.805319"/>
     <use style="stroke:#000000;" x="995.144181" xlink:href="#m49ae6d2de0" y="600.901789"/>
     <use style="stroke:#000000;" x="995.413508" xlink:href="#m49ae6d2de0" y="601.998585"/>
     <use style="stroke:#000000;" x="995.682282" xlink:href="#m49ae6d2de0" y="603.095704"/>
     <use style="stroke:#000000;" x="995.950506" xlink:href="#m49ae6d2de0" y="604.193146"/>
     <use style="stroke:#000000;" x="996.218182" xlink:href="#m49ae6d2de0" y="605.290909"/>
    </g>
   </g>
   <g id="patch_3">
    <path d="M 144 630 
L 144 86.4 
" style="fill:none;stroke:#000000;stroke-linecap:square;stroke-linejoin:miter;stroke-width:0.8;"/>
   </g>
   <g id="patch_4">
    <path d="M 1036.8 630 
L 1036.8 86.4 
" style="fill:none;stroke:#000000;stroke-linecap:square;stroke-linejoin:miter;stroke-width:0.8;"/>
   </g>
   <g id="patch_5">
    <path d="M 144 630 
L 1036.8 630 
" style="fill:none;stroke:#000000;stroke-linecap:square;stroke-linejoin:miter;stroke-width:0.8;"/>
   </g>
   <g id="patch_6">
    <path d="M 144 86.4 
L 1036.8 86.4 
" style="fill:none;stroke:#000000;stroke-linecap:square;stroke-linejoin:miter;stroke-width:0.8;"/>
   </g>
   <g id="text_8">
    <!-- GW modes for Exoplanet HD 20782 b, $e=$0.956 -->
    <defs>
     <path d="M 59.515625 10.40625 
L 59.515625 29.984375 
L 43.40625 29.984375 
L 43.40625 38.09375 
L 69.28125 38.09375 
L 69.28125 6.78125 
Q 63.578125 2.734375 56.6875 0.65625 
Q 49.8125 -1.421875 42 -1.421875 
Q 24.90625 -1.421875 15.25 8.5625 
Q 5.609375 18.5625 5.609375 36.375 
Q 5.609375 54.25 15.25 64.234375 
Q 24.90625 74.21875 42 74.21875 
Q 49.125 74.21875 55.546875 72.453125 
Q 61.96875 70.703125 67.390625 67.28125 
L 67.390625 56.78125 
Q 61.921875 61.421875 55.765625 63.765625 
Q 49.609375 66.109375 42.828125 66.109375 
Q 29.4375 66.109375 22.71875 58.640625 
Q 16.015625 51.171875 16.015625 36.375 
Q 16.015625 21.625 22.71875 14.15625 
Q 29.4375 6.6875 42.828125 6.6875 
Q 48.046875 6.6875 52.140625 7.59375 
Q 56.25 8.5 59.515625 10.40625 
z
" id="DejaVuSans-47"/>
     <path d="M 3.328125 72.90625 
L 13.28125 72.90625 
L 28.609375 11.28125 
L 43.890625 72.90625 
L 54.984375 72.90625 
L 70.3125 11.28125 
L 85.59375 72.90625 
L 95.609375 72.90625 
L 77.296875 0 
L 64.890625 0 
L 49.515625 63.28125 
L 33.984375 0 
L 21.578125 0 
z
" id="DejaVuSans-57"/>
     <path d="M 9.8125 72.90625 
L 55.90625 72.90625 
L 55.90625 64.59375 
L 19.671875 64.59375 
L 19.671875 43.015625 
L 54.390625 43.015625 
L 54.390625 34.71875 
L 19.671875 34.71875 
L 19.671875 8.296875 
L 56.78125 8.296875 
L 56.78125 0 
L 9.8125 0 
z
" id="DejaVuSans-45"/>
     <path d="M 54.890625 54.6875 
L 35.109375 28.078125 
L 55.90625 0 
L 45.3125 0 
L 29.390625 21.484375 
L 13.484375 0 
L 2.875 0 
L 24.125 28.609375 
L 4.6875 54.6875 
L 15.28125 54.6875 
L 29.78125 35.203125 
L 44.28125 54.6875 
z
" id="DejaVuSans-78"/>
     <path d="M 18.109375 8.203125 
L 18.109375 -20.796875 
L 9.078125 -20.796875 
L 9.078125 54.6875 
L 18.109375 54.6875 
L 18.109375 46.390625 
Q 20.953125 51.265625 25.265625 53.625 
Q 29.59375 56 35.59375 56 
Q 45.5625 56 51.78125 48.09375 
Q 58.015625 40.1875 58.015625 27.296875 
Q 58.015625 14.40625 51.78125 6.484375 
Q 45.5625 -1.421875 35.59375 -1.421875 
Q 29.59375 -1.421875 25.265625 0.953125 
Q 20.953125 3.328125 18.109375 8.203125 
z
M 48.6875 27.296875 
Q 48.6875 37.203125 44.609375 42.84375 
Q 40.53125 48.484375 33.40625 48.484375 
Q 26.265625 48.484375 22.1875 42.84375 
Q 18.109375 37.203125 18.109375 27.296875 
Q 18.109375 17.390625 22.1875 11.75 
Q 26.265625 6.109375 33.40625 6.109375 
Q 40.53125 6.109375 44.609375 11.75 
Q 48.6875 17.390625 48.6875 27.296875 
z
" id="DejaVuSans-70"/>
     <path d="M 19.671875 64.796875 
L 19.671875 8.109375 
L 31.59375 8.109375 
Q 46.6875 8.109375 53.6875 14.9375 
Q 60.6875 21.78125 60.6875 36.53125 
Q 60.6875 51.171875 53.6875 57.984375 
Q 46.6875 64.796875 31.59375 64.796875 
z
M 9.8125 72.90625 
L 30.078125 72.90625 
Q 51.265625 72.90625 61.171875 64.09375 
Q 71.09375 55.28125 71.09375 36.53125 
Q 71.09375 17.671875 61.125 8.828125 
Q 51.171875 0 30.078125 0 
L 9.8125 0 
z
" id="DejaVuSans-44"/>
     <path d="M 31.78125 34.625 
Q 24.75 34.625 20.71875 30.859375 
Q 16.703125 27.09375 16.703125 20.515625 
Q 16.703125 13.921875 20.71875 10.15625 
Q 24.75 6.390625 31.78125 6.390625 
Q 38.8125 6.390625 42.859375 10.171875 
Q 46.921875 13.96875 46.921875 20.515625 
Q 46.921875 27.09375 42.890625 30.859375 
Q 38.875 34.625 31.78125 34.625 
z
M 21.921875 38.8125 
Q 15.578125 40.375 12.03125 44.71875 
Q 8.5 49.078125 8.5 55.328125 
Q 8.5 64.0625 14.71875 69.140625 
Q 20.953125 74.21875 31.78125 74.21875 
Q 42.671875 74.21875 48.875 69.140625 
Q 55.078125 64.0625 55.078125 55.328125 
Q 55.078125 49.078125 51.53125 44.71875 
Q 48 40.375 41.703125 38.8125 
Q 48.828125 37.15625 52.796875 32.3125 
Q 56.78125 27.484375 56.78125 20.515625 
Q 56.78125 9.90625 50.3125 4.234375 
Q 43.84375 -1.421875 31.78125 -1.421875 
Q 19.734375 -1.421875 13.25 4.234375 
Q 6.78125 9.90625 6.78125 20.515625 
Q 6.78125 27.484375 10.78125 32.3125 
Q 14.796875 37.15625 21.921875 38.8125 
z
M 18.3125 54.390625 
Q 18.3125 48.734375 21.84375 45.5625 
Q 25.390625 42.390625 31.78125 42.390625 
Q 38.140625 42.390625 41.71875 45.5625 
Q 45.3125 48.734375 45.3125 54.390625 
Q 45.3125 60.0625 41.71875 63.234375 
Q 38.140625 66.40625 31.78125 66.40625 
Q 25.390625 66.40625 21.84375 63.234375 
Q 18.3125 60.0625 18.3125 54.390625 
z
" id="DejaVuSans-38"/>
     <path d="M 48.6875 27.296875 
Q 48.6875 37.203125 44.609375 42.84375 
Q 40.53125 48.484375 33.40625 48.484375 
Q 26.265625 48.484375 22.1875 42.84375 
Q 18.109375 37.203125 18.109375 27.296875 
Q 18.109375 17.390625 22.1875 11.75 
Q 26.265625 6.109375 33.40625 6.109375 
Q 40.53125 6.109375 44.609375 11.75 
Q 48.6875 17.390625 48.6875 27.296875 
z
M 18.109375 46.390625 
Q 20.953125 51.265625 25.265625 53.625 
Q 29.59375 56 35.59375 56 
Q 45.5625 56 51.78125 48.09375 
Q 58.015625 40.1875 58.015625 27.296875 
Q 58.015625 14.40625 51.78125 6.484375 
Q 45.5625 -1.421875 35.59375 -1.421875 
Q 29.59375 -1.421875 25.265625 0.953125 
Q 20.953125 3.328125 18.109375 8.203125 
L 18.109375 0 
L 9.078125 0 
L 9.078125 75.984375 
L 18.109375 75.984375 
z
" id="DejaVuSans-62"/>
     <path d="M 48.09375 32.234375 
Q 48.25 33.015625 48.3125 33.84375 
Q 48.390625 34.671875 48.390625 35.5 
Q 48.390625 41.453125 44.890625 44.921875 
Q 41.40625 48.390625 35.40625 48.390625 
Q 28.71875 48.390625 23.578125 44.15625 
Q 18.453125 39.9375 15.828125 32.171875 
z
M 55.90625 25.203125 
L 14.109375 25.203125 
Q 13.8125 23.34375 13.71875 22.265625 
Q 13.625 21.1875 13.625 20.40625 
Q 13.625 13.625 17.796875 9.90625 
Q 21.96875 6.203125 29.59375 6.203125 
Q 35.453125 6.203125 40.671875 7.515625 
Q 45.90625 8.84375 50.390625 11.375 
L 48.6875 2.484375 
Q 43.84375 0.53125 38.6875 -0.4375 
Q 33.546875 -1.421875 28.21875 -1.421875 
Q 16.84375 -1.421875 10.71875 4.015625 
Q 4.59375 9.46875 4.59375 19.484375 
Q 4.59375 28.03125 7.640625 35.375 
Q 10.6875 42.71875 16.609375 48.484375 
Q 20.40625 52.09375 25.65625 54.046875 
Q 30.90625 56 36.8125 56 
Q 46.09375 56 51.578125 50.4375 
Q 57.078125 44.875 57.078125 35.5 
Q 57.078125 33.25 56.78125 30.6875 
Q 56.5 28.125 55.90625 25.203125 
z
" id="DejaVuSans-Oblique-65"/>
     <path d="M 10.59375 45.40625 
L 73.1875 45.40625 
L 73.1875 37.203125 
L 10.59375 37.203125 
z
M 10.59375 25.484375 
L 73.1875 25.484375 
L 73.1875 17.1875 
L 10.59375 17.1875 
z
" id="DejaVuSans-3d"/>
     <path d="M 10.6875 12.40625 
L 21 12.40625 
L 21 0 
L 10.6875 0 
z
" id="DejaVuSans-2e"/>
     <path d="M 10.984375 1.515625 
L 10.984375 10.5 
Q 14.703125 8.734375 18.5 7.8125 
Q 22.3125 6.890625 25.984375 6.890625 
Q 35.75 6.890625 40.890625 13.453125 
Q 46.046875 20.015625 46.78125 33.40625 
Q 43.953125 29.203125 39.59375 26.953125 
Q 35.25 24.703125 29.984375 24.703125 
Q 19.046875 24.703125 12.671875 31.3125 
Q 6.296875 37.9375 6.296875 49.421875 
Q 6.296875 60.640625 12.9375 67.421875 
Q 19.578125 74.21875 30.609375 74.21875 
Q 43.265625 74.21875 49.921875 64.515625 
Q 56.59375 54.828125 56.59375 36.375 
Q 56.59375 19.140625 48.40625 8.859375 
Q 40.234375 -1.421875 26.421875 -1.421875 
Q 22.703125 -1.421875 18.890625 -0.6875 
Q 15.09375 0.046875 10.984375 1.515625 
z
M 30.609375 32.421875 
Q 37.25 32.421875 41.125 36.953125 
Q 45.015625 41.5 45.015625 49.421875 
Q 45.015625 57.28125 41.125 61.84375 
Q 37.25 66.40625 30.609375 66.40625 
Q 23.96875 66.40625 20.09375 61.84375 
Q 16.21875 57.28125 16.21875 49.421875 
Q 16.21875 41.5 20.09375 36.953125 
Q 23.96875 32.421875 30.609375 32.421875 
z
" id="DejaVuSans-39"/>
    </defs>
    <g transform="translate(174.1248 80.4)scale(0.3456 -0.3456)">
     <use transform="translate(0 0.015625)" xlink:href="#DejaVuSans-47"/>
     <use transform="translate(77.490234 0.015625)" xlink:href="#DejaVuSans-57"/>
     <use transform="translate(176.367188 0.015625)" xlink:href="#DejaVuSans-20"/>
     <use transform="translate(208.154297 0.015625)" xlink:href="#DejaVuSans-6d"/>
     <use transform="translate(305.566406 0.015625)" xlink:href="#DejaVuSans-6f"/>
     <use transform="translate(366.748047 0.015625)" xlink:href="#DejaVuSans-64"/>
     <use transform="translate(430.224609 0.015625)" xlink:href="#DejaVuSans-65"/>
     <use transform="translate(491.748047 0.015625)" xlink:href="#DejaVuSans-73"/>
     <use transform="translate(543.847656 0.015625)" xlink:href="#DejaVuSans-20"/>
     <use transform="translate(575.634766 0.015625)" xlink:href="#DejaVuSans-66"/>
     <use transform="translate(610.839844 0.015625)" xlink:href="#DejaVuSans-6f"/>
     <use transform="translate(672.021484 0.015625)" xlink:href="#DejaVuSans-72"/>
     <use transform="translate(713.134766 0.015625)" xlink:href="#DejaVuSans-20"/>
     <use transform="translate(744.921875 0.015625)" xlink:href="#DejaVuSans-45"/>
     <use transform="translate(808.105469 0.015625)" xlink:href="#DejaVuSans-78"/>
     <use transform="translate(867.285156 0.015625)" xlink:href="#DejaVuSans-6f"/>
     <use transform="translate(928.466797 0.015625)" xlink:href="#DejaVuSans-70"/>
     <use transform="translate(991.943359 0.015625)" xlink:href="#DejaVuSans-6c"/>
     <use transform="translate(1019.726562 0.015625)" xlink:href="#DejaVuSans-61"/>
     <use transform="translate(1081.005859 0.015625)" xlink:href="#DejaVuSans-6e"/>
     <use transform="translate(1144.384766 0.015625)" xlink:href="#DejaVuSans-65"/>
     <use transform="translate(1205.908203 0.015625)" xlink:href="#DejaVuSans-74"/>
     <use transform="translate(1245.117188 0.015625)" xlink:href="#DejaVuSans-20"/>
     <use transform="translate(1276.904297 0.015625)" xlink:href="#DejaVuSans-48"/>
     <use transform="translate(1352.099609 0.015625)" xlink:href="#DejaVuSans-44"/>
     <use transform="translate(1429.101562 0.015625)" xlink:href="#DejaVuSans-20"/>
     <use transform="translate(1460.888672 0.015625)" xlink:href="#DejaVuSans-32"/>
     <use transform="translate(1524.511719 0.015625)" xlink:href="#DejaVuSans-30"/>
     <use transform="translate(1588.134766 0.015625)" xlink:href="#DejaVuSans-37"/>
     <use transform="translate(1651.757812 0.015625)" xlink:href="#DejaVuSans-38"/>
     <use transform="translate(1715.380859 0.015625)" xlink:href="#DejaVuSans-32"/>
     <use transform="translate(1779.003906 0.015625)" xlink:href="#DejaVuSans-20"/>
     <use transform="translate(1810.791016 0.015625)" xlink:href="#DejaVuSans-62"/>
     <use transform="translate(1874.267578 0.015625)" xlink:href="#DejaVuSans-2c"/>
     <use transform="translate(1906.054688 0.015625)" xlink:href="#DejaVuSans-20"/>
     <use transform="translate(1937.841797 0.015625)" xlink:href="#DejaVuSans-Oblique-65"/>
     <use transform="translate(2018.847656 0.015625)" xlink:href="#DejaVuSans-3d"/>
     <use transform="translate(2122.119141 0.015625)" xlink:href="#DejaVuSans-30"/>
     <use transform="translate(2185.742188 0.015625)" xlink:href="#DejaVuSans-2e"/>
     <use transform="translate(2217.529297 0.015625)" xlink:href="#DejaVuSans-39"/>
     <use transform="translate(2281.152344 0.015625)" xlink:href="#DejaVuSans-35"/>
     <use transform="translate(2344.775391 0.015625)" xlink:href="#DejaVuSans-36"/>
    </g>
   </g>
  </g>
 </g>
 <defs>
  <clipPath id="pd7d6c766c1">
   <rect height="543.6" width="892.8" x="144" y="86.4"/>
  </clipPath>
 </defs>
</svg>
